# File produced by Open Asset Import Library (http://www.assimp.sf.net)
# (assimp v3.1.187496374)

mtllib endlerslivebearer.obj.mtl

# 156 vertex positions
v  14.46 -7.06478 0.91
v  7.46 -10.0648 0.91
v  10.46 -7.06478 0.91
v  -12.54 -11.0648 0.91
v  -16.2997 -9.71672 0.91
v  -2.04 -8.06478 0.91
v  -16.54 -11.0648 0.91
v  -16.7997 -7.21672 0.91
v  -11.54 -6.06478 0.91
v  -6.54 -3.06478 0.91
v  -17.54 -6.06478 0.91
v  7.46 -10.0648 -1.09
v  14.46 -7.06478 -1.09
v  -12.54 -11.0648 -1.09
v  10.46 -7.06478 -1.09
v  -16.54 -11.0648 -1.09
v  -16.2997 -9.71672 -1.09
v  -2.04 -8.06478 -1.09
v  -16.7997 -7.21672 -1.09
v  -11.54 -6.06478 -1.09
v  -6.54 -3.06478 -1.09
v  -17.54 -6.06478 -1.09
v  14.4547 -3.1415 2.91
v  23.6733 -5.06478 2.91
v  13.5666 -5.06478 2.91
v  23.6733 1.93522 2.91
v  3.46 1.93522 2.91
v  3.46 -1.56478 2.91
v  3.46 -5.06478 2.91
v  25.8865 3.93522 0.91
v  25.8865 -7.06478 0.91
v  3.46 -5.06478 -3.09
v  3.46 -1.56478 -3.09
v  13.5666 -5.06478 -3.09
v  14.4547 -3.1415 -3.09
v  3.46 1.93522 -3.09
v  23.6733 1.93522 -3.09
v  23.6733 -5.06478 -3.09
v  25.8865 3.93522 -1.09
v  25.8865 -7.06478 -1.09
v  -22.54 1.93522 3.91
v  -11.54 -3.89811 3.91
v  -22.54 -3.89811 3.91
v  -11.54 1.93522 3.91
v  -11.54 1.93522 -4.09
v  -22.54 -3.89811 -4.09
v  -11.54 -3.89811 -4.09
v  -22.54 1.93522 -4.09
v  5.46 10.9352 0.91
v  3.46 7.93522 0.91
v  0.46 7.93522 0.91
v  9.46 10.9352 0.91
v  16.46 3.93522 0.91
v  11.46 3.93522 0.91
v  16.46 3.93522 -1.09
v  9.46 10.9352 -1.09
v  0.46 7.93522 -1.09
v  5.46 10.9352 -1.09
v  11.46 3.93522 -1.09
v  3.46 7.93522 -1.09
v  32.4391 -6.83618 0.91
v  30.0666 -11.5648 0.91
v  32.8865 -1.56478 0.91
v  32.4391 3.70663 0.91
v  28.6733 6.93522 0.91
v  30.0666 8.43522 0.91
v  32.4391 -6.83618 -1.09
v  32.8865 -1.56478 -1.09
v  30.0666 -11.5648 -1.09
v  32.4391 3.70663 -1.09
v  28.6733 6.93522 -1.09
v  30.0666 8.43522 -1.09
v  -19.54 3.93522 0.91
v  -14.54 3.93522 0.91
v  -25.1098 -3.25145 3.17578
v  -25.5722 -3.31478 3.04364
v  -24.6788 -3.0658 3.29892
v  -24.3087 -2.77046 3.40466
v  -24.0247 -2.38557 3.48579
v  -23.8462 -1.93735 3.53679
v  -33.04 -2.89811 0.91
v  -26.0347 -3.25145 2.91151
v  -26.4657 -3.0658 2.78837
v  -26.8358 -2.77046 2.68263
v  -33.04 -1.64811 0.91
v  -27.1198 -2.38557 2.6015
v  -27.2983 -1.93735 2.55049
v  -27.3592 -1.45636 2.5331
v  -27.2983 -0.975366 2.55049
v  -27.1198 -0.52715 2.6015
v  -26.8358 -0.142259 2.68263
v  -26.4657 0.153078 2.78837
v  -26.0347 0.338735 2.91151
v  -25.5722 0.402059 3.04364
v  -25.1098 0.338735 3.17578
v  -24.6788 0.153078 3.29892
v  -24.3087 -0.142259 3.40466
v  -24.0247 -0.52715 3.48579
v  -23.8462 -0.975366 3.53679
v  -23.7853 -1.45636 3.55419
v  -2.54 7.93522 0.91
v  -19.54 3.93522 -1.09
v  -14.54 3.93522 -1.09
v  -25.54 1.93522 0.91
v  -33.04 -2.89811 -1.09
v  -33.04 -1.64811 -1.09
v  -28.54 -7.06478 0.91
v  -2.54 7.93522 -1.09
v  -25.54 1.93522 -1.09
v  -28.54 -7.06478 -1.09
v  -25.5722 -3.31478 -3.22364
v  -26.0347 -3.25145 -3.09151
v  -26.4657 -3.0658 -2.96837
v  -26.8358 -2.77046 -2.86263
v  -25.1098 -3.25145 -3.35578
v  -24.6788 -3.0658 -3.47892
v  -24.3087 -2.77046 -3.58466
v  -24.0247 -2.38557 -3.66579
v  -23.8462 -1.93735 -3.71679
v  -23.7853 -1.45636 -3.73419
v  -23.8462 -0.975366 -3.71679
v  -24.0247 -0.52715 -3.66579
v  -24.3087 -0.142259 -3.58466
v  -24.6788 0.153078 -3.47892
v  -25.1098 0.338735 -3.35578
v  -25.5722 0.402059 -3.22364
v  -26.0347 0.338735 -3.09151
v  -26.4657 0.153078 -2.96837
v  -26.8358 -0.142259 -2.86263
v  -27.1198 -0.52715 -2.7815
v  -27.2983 -0.975366 -2.73049
v  -27.1198 -2.38557 -2.7815
v  -27.2983 -1.93735 -2.73049
v  -27.3592 -1.45636 -2.7131
v  -23.54 -9.06478 0.91
v  -23.54 -9.06478 -1.09
v  25.8865 8.25445 0.91
v  21.46 3.93522 0.91
v  21.46 3.93522 -1.09
v  25.8865 8.25445 -1.09
v  21.46 -7.06478 0.91
v  21.46 -7.06478 -1.09
v  25.8865 -11.384 0.91
v  25.8865 -11.384 -1.09
v  31.46 -13.0648 0.91
v  31.46 9.93522 0.91
v  31.46 -14.0648 0.91
v  31.46 -13.0648 -1.09
v  31.46 10.9352 0.91
v  31.46 9.93522 -1.09
v  31.46 -14.0648 -1.09
v  31.46 10.9352 -1.09
v  -2.54 4.93522 -1.09
v  -2.54 4.93522 0.91
v  -19.54 -9.06478 0.91
v  -19.54 -9.06478 -1.09

# 0 UV coordinates

# 145 vertex normals
vn 1.45753e-33 -6.11218e-18 -0.0254
vn -3.62311e-18 1.05062e-18 -0.0254
vn -0.0100055 0.0233463 -2.42666e-16
vn -0.00126842 0.0253683 -1.09779e-17
vn 0 0 0.0254
vn -1.097e-17 -1.94852e-17 0.0254
vn 3.4903e-18 -1.09872e-17 -0.0254
vn 3.62862e-18 -1.0478e-17 -0.0254
vn 0 0.0254 5.50096e-17
vn 0.00588632 0.00529769 -0.0241339
vn -0.0170296 -9.55173e-18 -0.0188455
vn 0.00498135 -1.00885e-17 -0.0249067
vn 0.00588632 0.00529769 0.0241339
vn 0 -2.09561e-17 0.0254
vn -1.38322e-19 -1.88457e-17 0.0254
vn 0.00498135 -1.7823e-17 0.0249067
vn -0.0170296 -3.91229e-18 0.0188455
vn 1.00018e-17 -6.28682e-18 -0.0254
vn 1.00018e-17 -1.88605e-17 0.0254
vn 4.46336e-18 -1.17099e-17 -0.0254
vn -0.0179605 -0.0179605 -5.00588e-17
vn 0.0130682 -0.0217803 1.51443e-16
vn 0 -0.0254 0
vn 6.3231e-18 -1.6589e-17 0.0254
vn -1.95907e-18 -1.27971e-17 -0.0254
vn -0.025309 0.00214846 -5.80648e-16
vn -0.0227028 0.0113904 -4.13156e-16
vn -0.025309 -0.00214846 -5.89729e-16
vn 2.61801e-18 -8.60599e-18 0.0254
vn -1.00018e-17 6.28682e-18 0.0254
vn -3.05774e-18 0.0211341 0.0140894
vn -0.00697792 2.47069e-18 0.0244227
vn -0.00582716 0.0174815 0.0174815
vn 0 0.0254 0
vn -0.00765839 0.0229752 0.00765839
vn -0.0100554 0.0210461 0.0100554
vn -0.0254 -8.95176e-32 -1.46692e-16
vn -0.00732442 -0.00791037 0.0229987
vn -0.00803219 0.0240966 -7.06956e-17
vn 2.83124e-20 0.0211341 -0.0140894
vn -0.00803219 0.0240966 -1.11935e-17
vn -0.01095 0.0229185 -3.17146e-17
vn -0.017257 -0.0186375 1.25561e-17
vn -0.00697792 -1.23535e-18 -0.0244227
vn -0.00473554 -0.0118388 0.0219676
vn -0.00582716 0.0174815 -0.0174815
vn -1.00018e-17 1.88605e-17 -0.0254
vn -0.00765839 0.0229752 -0.00765839
vn -0.0100554 0.0210461 -0.0100554
vn -0.00943332 -0.0235833 3.4076e-17
vn -0.00732442 -0.00791037 -0.0229987
vn -0.00473554 -0.0118388 -0.0219676
vn 1.95907e-18 1.27971e-17 0.0254
vn 0.025309 -0.00214846 5.80648e-16
vn 0.0227028 -0.0113904 4.13156e-16
vn 0.0227028 0.0113904 4.09651e-16
vn 0.025309 0.00214846 5.89729e-16
vn -2.61801e-18 8.60599e-18 -0.0254
vn -0.00989181 0.0101376 0.0210842
vn -0.0177388 0.0181795 -2.32238e-16
vn -0.00989181 0.0101376 -0.0210842
vn -4.46336e-18 1.17099e-17 0.0254
vn 0.0179605 0.0179605 5.00588e-17
vn -0.0130682 0.0217803 -1.51443e-16
vn -6.3231e-18 1.6589e-17 -0.0254
vn -1.45753e-33 6.11218e-18 0.0254
vn 3.62311e-18 -1.05062e-18 0.0254
vn 0.0100055 -0.0233463 2.42666e-16
vn 0.00538479 -0.00538479 0.0242316
vn -2.23111e-18 -0.0179605 0.0179605
vn 0.00126842 -0.0253683 1.09779e-17
vn 2.28223e-34 -0.0254 3.66731e-17
vn 0 0 -0.0254
vn 1.097e-17 1.94852e-17 -0.0254
vn -0.00230835 -0.0109646 0.0227949
vn -0.00989181 -0.0101376 0.0210842
vn -3.4903e-18 1.09872e-17 0.0254
vn -3.62862e-18 1.0478e-17 0.0254
vn 0 -0.0254 -5.50096e-17
vn 0 -0.0179605 -0.0179605
vn -0.0177388 -0.0181795 -1.78748e-16
vn 0.00538479 -0.00538479 -0.0242316
vn -0.00588632 -0.00529769 0.0241339
vn 0.0170296 9.55173e-18 0.0188455
vn -0.00498135 1.00885e-17 0.0249067
vn -0.00588632 -0.00529769 -0.0241339
vn -0.00230835 -0.0109646 -0.0227949
vn 0 2.09561e-17 -0.0254
vn 1.38322e-19 1.88457e-17 -0.0254
vn -0.00989181 -0.0101376 -0.0210842
vn 0.018454 0.0171421 0.00327972
vn 0.018454 -0.0171421 0.00327972
vn -0.00498135 1.7823e-17 -0.0249067
vn 0.0170296 3.91229e-18 -0.0188455
vn 0.00631882 1.20794e-16 0.0246015
vn 0.0186098 0.0172868 6.26296e-17
vn 0.00631882 4.83178e-16 0.0246015
vn 0.0186098 -0.0172868 8.20883e-17
vn 0.018454 0.0171421 -0.00327972
vn 0.018454 -0.0171421 -0.00327972
vn 0.0254 0 0
vn 0.00631882 1.20794e-16 -0.0246015
vn 0.00631882 2.41589e-16 -0.0246015
vn -0.0042836 0.00890584 0.0233987
vn -0.0110097 0.0228899 -3.2984e-17
vn -0.0042836 0.00890584 -0.0233987
vn -0.0042836 -0.00890584 0.0233987
vn -0.0110097 -0.0228899 1.86783e-17
vn -0.0042836 -0.00890584 -0.0233987
vn 0.00803219 9.84065e-18 -0.0240966
vn 0.00803219 3.64385e-17 -0.0240966
vn -5.33601e-18 8.36257e-18 0.0254
vn -2.85111e-18 1.44324e-17 -0.0254
vn 0.00803219 0 0.0240966
vn 0.00803219 1.0411e-17 0.0240966
vn 0.0134166 -0.00670831 0.0204976
vn 0.0111102 -0.018517 0.0133734
vn -0.00649098 0.00324549 0.0243412
vn -6.50771e-18 -0.0205913 0.0148715
vn -0.00803219 0 0.0240966
vn 0.0150217 0.00965366 0.0180642
vn -1.23008e-18 0.00803219 0.0240966
vn 0.012856 0.0025712 0.0217548
vn 0.00396681 0.00793363 0.0238009
vn 0.00965817 -0.00172156 0.023429
vn -2.00784e-18 0.0179605 0.0179605
vn -1.23008e-18 0.00803219 -0.0240966
vn -0.0105861 -0.0158792 0.0167614
vn -0.00803219 0 -0.0240966
vn 0.00396681 0.00793363 -0.0238009
vn -9.56928e-19 -0.0127542 0.0219656
vn -0.0140894 -0.0211341 -2.71268e-17
vn 9.12654e-20 0.0179605 -0.0179605
vn -0.00649098 0.00324549 -0.0243412
vn 6.35393e-34 -0.0254 3.66731e-17
vn -0.0105861 -0.0158792 -0.0167614
vn 0.0134166 -0.00670831 -0.0204976
vn -9.56928e-19 -0.0127542 -0.0219656
vn 0.00965817 -0.00172156 -0.023429
vn 0.0111102 -0.018517 -0.0133734
vn 0.012856 0.0025712 -0.0217548
vn -8.85771e-18 -0.0205913 -0.0148715
vn 0.0150217 0.00965366 -0.0180642
vn -0.00697792 2.46982e-20 -0.0244227
vn -0.00697792 2.85881e-18 0.0244227

# Mesh 'SketchUp' with 80 faces
g SketchUp
usemtl ID4
f  1//1 2//1 3//1
f  4//2 5//2 2//1
f  2//1 5//2 6//2
f  5//2 4//2 7//2
f  6//2 5//2 8//2
f  6//2 8//2 9//2
f  6//2 9//2 10//2
f  9//2 8//2 11//2
f  1//3 12//3 2//3
f  12//3 1//3 13//3
f  2//4 14//4 4//4
f  14//4 2//4 12//4
f  15//5 12//5 13//5
f  12//5 16//6 14//6
f  16//6 12//5 17//6
f  17//6 12//5 18//6
f  17//6 18//6 19//6
f  19//6 18//6 20//6
f  20//6 18//6 21//6
f  22//6 19//6 20//6
f  23//7 24//7 25//7
f  24//7 23//7 26//7
f  26//7 23//7 27//7
f  28//8 23//7 25//7
f  23//7 28//8 27//7
f  28//8 25//7 29//8
f  4//9 16//9 7//9
f  16//9 4//9 14//9
f  10//10 29//10 6//10
f  24//11 30//11 31//11
f  30//11 24//11 26//11
f  10//12 28//12 29//12
f  28//12 10//12 27//12
f  21//13 18//13 32//13
f  33//14 32//14 34//14
f  35//15 33//14 34//14
f  33//14 35//15 36//15
f  37//15 34//14 38//15
f  34//14 37//15 35//15
f  35//15 37//15 36//15
f  33//16 21//16 32//16
f  21//16 33//16 36//16
f  39//17 38//17 40//17
f  38//17 39//17 37//17
f  41//18 42//18 43//18
f  42//18 41//18 44//18
f  45//19 46//19 47//19
f  46//19 45//19 48//19
f  49//20 50//20 51//20
f  52//20 50//20 49//20
f  50//20 53//20 54//20
f  53//20 50//20 52//20
f  55//21 52//21 56//21
f  52//21 55//21 53//21
f  57//22 49//22 51//22
f  49//22 57//22 58//22
f  58//23 52//23 49//23
f  52//23 58//23 56//23
f  56//24 59//24 55//24
f  59//24 56//24 60//24
f  60//24 56//24 57//24
f  57//24 56//24 58//24
f  31//25 61//25 62//25
f  61//25 31//25 30//25
f  61//25 30//25 63//25
f  63//25 30//25 64//25
f  64//25 30//25 65//25
f  64//25 65//25 66//25
f  63//26 67//26 61//26
f  67//26 63//26 68//26
f  61//27 69//27 62//27
f  69//27 61//27 67//27
f  64//28 68//28 63//28
f  68//28 64//28 70//28
f  67//29 40//29 69//29
f  40//29 67//29 39//29
f  39//29 67//29 68//29
f  39//29 68//29 70//29
f  39//29 70//29 71//29
f  71//29 70//29 72//29

# Mesh 'SketchUp' with 108 faces
g SketchUp
usemtl ID8
f  44//30 41//30 42//30
f  43//30 42//30 41//30
f  44//31 73//31 41//31
f  73//31 44//31 74//31
f  43//32 75//32 76//32
f  75//32 43//32 77//32
f  77//32 43//32 78//32
f  78//32 43//32 79//32
f  79//32 43//32 80//32
f  80//32 43//32 41//32
f  76//32 81//32 43//32
f  81//32 76//32 82//32
f  81//32 82//32 83//32
f  81//32 83//32 84//32
f  81//32 84//32 85//32
f  85//32 84//32 86//32
f  85//32 86//32 87//32
f  85//32 87//32 88//32
f  85//32 88//32 89//32
f  85//32 89//32 90//32
f  85//32 90//32 91//32
f  85//32 91//32 92//32
f  85//32 92//32 41//32
f  41//32 92//32 93//32
f  41//32 93//32 94//32
f  95//32 41//32 94//32
f  96//32 41//32 95//32
f  97//32 41//32 96//32
f  98//32 41//32 97//32
f  99//32 41//32 98//32
f  80//32 41//32 100//32
f  100//32 41//32 99//32
f  101//33 74//33 44//33
f  74//34 102//34 73//34
f  102//34 74//34 103//34
f  73//35 104//35 41//35
f  41//36 104//36 85//36
f  85//37 105//37 81//37
f  105//37 85//37 106//37
f  81//38 107//38 43//38
f  101//39 103//39 74//39
f  103//39 101//39 108//39
f  102//40 45//40 48//40
f  45//40 102//40 103//40
f  73//41 109//41 104//41
f  109//41 73//41 102//41
f  104//42 106//42 85//42
f  106//42 104//42 109//42
f  105//43 107//43 81//43
f  107//43 105//43 110//43
f  105//44 111//44 46//44
f  111//44 105//44 112//44
f  112//44 105//44 113//44
f  113//44 105//44 114//44
f  114//44 105//44 106//44
f  115//44 46//44 111//44
f  116//44 46//44 115//44
f  117//44 46//44 116//44
f  118//44 46//44 117//44
f  119//44 46//44 118//44
f  46//44 119//44 48//44
f  48//44 119//44 120//44
f  48//44 120//44 121//44
f  48//44 121//44 122//44
f  48//44 122//44 123//44
f  48//44 123//44 124//44
f  48//44 124//44 125//44
f  48//44 125//44 126//44
f  127//44 48//44 126//44
f  128//44 48//44 127//44
f  128//44 106//44 48//44
f  129//44 106//44 128//44
f  130//44 106//44 129//44
f  131//44 106//44 130//44
f  114//44 106//44 132//44
f  132//44 106//44 133//44
f  133//44 106//44 134//44
f  134//44 106//44 131//44
f  43//45 107//45 135//45
f  108//46 45//46 103//46
f  48//47 45//47 46//47
f  47//47 46//47 45//47
f  102//48 48//48 109//48
f  48//49 106//49 109//49
f  136//50 107//50 110//50
f  107//50 136//50 135//50
f  105//51 46//51 110//51
f  46//52 136//52 110//52
f  66//53 65//53 64//53
f  65//53 30//53 64//53
f  64//53 30//53 63//53
f  63//53 30//53 61//53
f  30//53 31//53 61//53
f  62//53 61//53 31//53
f  68//54 63//54 67//54
f  61//54 67//54 63//54
f  67//55 61//55 69//55
f  62//55 69//55 61//55
f  64//56 72//56 66//56
f  72//56 64//56 70//56
f  70//57 64//57 68//57
f  63//57 68//57 64//57
f  72//58 70//58 71//58
f  71//58 70//58 39//58
f  70//58 68//58 39//58
f  68//58 67//58 39//58
f  39//58 67//58 40//58
f  69//58 40//58 67//58

# Mesh 'SketchUp' with 98 faces
g SketchUp
usemtl ID16
f  137//59 138//59 26//59
f  137//60 139//60 138//60
f  139//60 137//60 140//60
f  140//61 37//61 139//61
f  49//62 50//62 52//62
f  51//62 50//62 49//62
f  52//62 50//62 53//62
f  54//62 53//62 50//62
f  53//63 55//63 52//63
f  56//63 52//63 55//63
f  58//64 57//64 49//64
f  51//64 49//64 57//64
f  56//34 58//34 52//34
f  49//34 52//34 58//34
f  58//65 56//65 57//65
f  57//65 56//65 60//65
f  60//65 56//65 59//65
f  55//65 59//65 56//65
f  3//66 2//66 1//66
f  6//67 5//67 2//66
f  2//66 5//67 4//67
f  10//67 9//67 6//67
f  9//67 8//67 6//67
f  8//67 5//67 6//67
f  7//67 4//67 5//67
f  11//67 8//67 9//67
f  13//68 1//68 12//68
f  2//68 12//68 1//68
f  29//69 2//69 3//69
f  24//70 1//70 141//70
f  1//70 24//70 3//70
f  3//70 24//70 29//70
f  29//70 24//70 25//70
f  12//71 2//71 14//71
f  4//71 14//71 2//71
f  13//72 141//72 1//72
f  141//72 13//72 142//72
f  13//73 12//73 15//73
f  18//74 12//73 17//74
f  17//74 12//73 16//74
f  14//74 16//74 12//73
f  21//74 18//74 20//74
f  20//74 18//74 19//74
f  19//74 18//74 17//74
f  20//74 19//74 22//74
f  29//75 6//75 2//75
f  24//76 141//76 143//76
f  27//77 23//77 26//77
f  26//77 23//77 24//77
f  25//77 24//77 23//77
f  29//78 25//77 28//78
f  14//79 4//79 16//79
f  7//79 16//79 4//79
f  34//80 15//80 32//80
f  15//80 34//80 13//80
f  13//80 34//80 38//80
f  13//80 38//80 142//80
f  142//81 143//81 141//81
f  143//81 142//81 144//81
f  32//82 15//82 12//82
f  6//83 29//83 10//83
f  26//84 24//84 30//84
f  31//84 30//84 24//84
f  27//85 10//85 28//85
f  29//85 28//85 10//85
f  32//86 18//86 21//86
f  32//87 12//87 18//87
f  34//88 32//88 33//88
f  35//89 37//89 34//88
f  38//89 34//88 37//89
f  36//89 37//89 35//89
f  38//90 144//90 142//90
f  145//91 62//91 24//91
f  31//91 24//91 62//91
f  30//92 146//92 26//92
f  146//92 30//92 66//92
f  66//92 30//92 65//92
f  36//93 33//93 21//93
f  32//93 21//93 33//93
f  37//94 39//94 38//94
f  40//94 38//94 39//94
f  24//95 147//95 145//95
f  145//96 69//96 62//96
f  69//96 145//96 148//96
f  149//97 26//97 146//97
f  66//98 150//98 146//98
f  150//98 66//98 72//98
f  38//99 69//99 148//99
f  38//99 40//99 69//99
f  39//100 72//100 71//100
f  72//100 39//100 37//100
f  72//100 37//100 150//100
f  151//101 145//101 147//101
f  145//101 151//101 148//101
f  150//101 149//101 146//101
f  149//101 150//101 152//101
f  38//102 148//102 151//102
f  152//103 150//103 37//103

# Mesh 'SketchUp' with 16 faces
g SketchUp
usemtl ID27
f  149//104 137//104 26//104
f  149//105 140//105 137//105
f  140//105 149//105 152//105
f  152//106 37//106 140//106
f  24//107 143//107 147//107
f  151//108 143//108 144//108
f  143//108 151//108 147//108
f  38//109 151//109 144//109
f  108//110 153//110 45//110
f  153//110 47//111 45//110
f  27//112 28//112 23//112
f  25//112 23//112 28//112
f  36//113 35//113 33//113
f  34//113 33//113 35//113
f  101//114 44//114 154//114
f  154//114 44//114 42//115

# Mesh 'SketchUp_ID34' with 42 faces
g SketchUp_ID34
usemtl ID35
f  154//116 42//116 10//116
f  10//117 42//117 9//117
f  154//118 10//118 27//118
f  11//119 42//119 43//119
f  42//119 11//119 9//119
f  101//120 154//120 27//120
f  43//121 8//121 11//121
f  50//122 101//122 27//122
f  101//122 50//122 51//122
f  43//123 5//123 8//123
f  50//124 27//124 54//124
f  51//34 108//34 101//34
f  108//34 51//34 57//34
f  43//125 7//125 5//125
f  26//126 54//126 27//126
f  54//126 26//126 53//126
f  53//126 26//126 138//126
f  108//127 60//127 36//127
f  60//127 108//127 57//127
f  43//128 155//128 7//128
f  138//34 55//34 53//34
f  55//34 138//34 139//34
f  108//129 36//129 153//129
f  60//130 59//130 36//130
f  43//131 135//131 155//131
f  156//132 7//132 155//132
f  7//132 156//132 16//132
f  59//133 37//133 36//133
f  37//133 59//133 55//133
f  37//133 55//133 139//133
f  153//134 36//134 21//134
f  136//135 155//135 135//135
f  155//135 136//135 156//135
f  46//136 16//136 156//136
f  153//137 21//137 47//137
f  46//138 156//138 136//138
f  46//139 17//139 16//139
f  21//140 20//140 47//140
f  46//141 19//141 17//141
f  47//142 22//142 46//142
f  22//142 47//142 20//142
f  46//143 22//143 19//143

# Mesh 'SketchUp' with 44 faces
g SketchUp
usemtl ID85
f  112//144 115//144 111//144
f  115//144 112//144 113//144
f  115//144 113//144 116//144
f  116//144 113//144 114//144
f  116//144 114//144 117//144
f  117//144 114//144 132//144
f  117//144 132//144 118//144
f  118//144 132//144 133//144
f  118//144 133//144 119//144
f  119//144 133//144 134//144
f  119//144 134//144 120//144
f  120//144 134//144 121//144
f  121//144 134//144 131//144
f  121//144 131//144 122//144
f  122//144 131//144 130//144
f  122//144 130//144 129//144
f  122//144 129//144 123//144
f  123//144 129//144 128//144
f  123//144 128//144 124//144
f  124//144 128//144 127//144
f  124//144 127//144 125//144
f  125//144 127//144 126//144
f  75//145 82//145 76//145
f  82//145 75//145 83//145
f  83//145 75//145 77//145
f  83//145 77//145 78//145
f  83//145 78//145 84//145
f  84//145 78//145 86//145
f  86//145 78//145 79//145
f  86//145 79//145 80//145
f  86//145 80//145 87//145
f  87//145 80//145 88//145
f  88//145 80//145 100//145
f  88//145 100//145 89//145
f  89//145 100//145 99//145
f  89//145 99//145 90//145
f  90//145 99//145 98//145
f  90//145 98//145 97//145
f  90//145 97//145 91//145
f  91//145 97//145 96//145
f  91//145 96//145 92//145
f  92//145 96//145 95//145
f  92//145 95//145 93//145
f  93//145 95//145 94//145

# Mesh 'SketchUp_ID98' with 1 faces
g SketchUp_ID98
usemtl ID99
l  87 133

