# File produced by Open Asset Import Library (http://www.assimp.sf.net)
# (assimp v3.1.187496374)

mtllib lowpolyfish.obj.mtl

# 82 vertex positions
v  52.5305 19.81 3.01
v  34.1971 1.47667 3.01
v  52.5305 14.81 3.01
v  46.6971 -0.19 3.01
v  34.1971 -1.85667 3.01
v  52.5305 -15.19 3.01
v  52.5305 -20.19 3.01
v  34.1971 -1.85667 -1.99
v  52.5305 -20.19 -1.99
v  52.5305 19.81 -1.99
v  34.1971 1.47667 -1.99
v  52.5305 14.81 -1.99
v  46.6971 -0.19 -1.99
v  52.5305 -15.19 -1.99
v  -25.1483 -6.58271 8.01
v  -31.2506 -2.48636 6.66462
v  -32.0118 -2.56253 6.49681
v  -30.5347 -2.21104 6.82248
v  -29.9127 -1.75535 6.95961
v  -29.4271 -1.15034 7.06667
v  -25.1483 6.20272 8.01
v  -47.8272 -2.04695 3.01
v  -32.7663 -2.43438 6.33047
v  -33.4627 -2.11063 6.17694
v  -34.0535 -1.61334 6.04668
v  -47.8272 1.66695 3.01
v  -34.4985 -0.976412 5.94857
v  -34.7674 -0.243243 5.88929
v  -34.8418 0.536201 5.87289
v  -34.7166 1.3088 5.90048
v  -34.4004 2.02191 5.97019
v  -33.9148 2.62692 6.07725
v  -33.2928 3.08261 6.21438
v  -32.5768 3.35793 6.37223
v  -31.8157 3.4341 6.54005
v  -31.0612 3.30595 6.70639
v  -30.3648 2.9822 6.85992
v  -29.774 2.48491 6.99018
v  -29.329 1.84798 7.08829
v  -29.0601 1.11481 7.14757
v  -28.9857 0.335368 7.16397
v  -29.1109 -0.437233 7.13638
v  -7.11192 17.953 3.01
v  -47.8272 1.66695 -1.99
v  -47.8272 -2.04695 -1.99
v  -7.11192 17.953 -1.99
v  -32.0118 -2.56253 -5.47681
v  -25.1483 -6.58271 -6.99
v  -32.7663 -2.43438 -5.31047
v  -33.4627 -2.11063 -5.15694
v  -34.0535 -1.61334 -5.02668
v  -31.2506 -2.48636 -5.64462
v  -30.5347 -2.21104 -5.80247
v  -29.9127 -1.75535 -5.93961
v  -29.4271 -1.15034 -6.04667
v  -25.1483 6.20272 -6.99
v  -29.1109 -0.437233 -6.11638
v  -28.9857 0.335368 -6.14397
v  -29.0601 1.11481 -6.12757
v  -29.329 1.84798 -6.06829
v  -29.774 2.48491 -5.97018
v  -30.3648 2.9822 -5.83992
v  -31.0612 3.30595 -5.68639
v  -31.8157 3.4341 -5.52005
v  -32.5768 3.35793 -5.35223
v  -33.2928 3.08261 -5.19438
v  -33.9148 2.62692 -5.05725
v  -34.4004 2.02191 -4.95019
v  -34.7166 1.3088 -4.88049
v  -34.8418 0.536201 -4.85289
v  -34.4985 -0.976412 -4.92857
v  -34.7674 -0.243243 -4.86929
v  15.8638 6.20272 8.01
v  15.8638 -6.58271 8.01
v  1.24437 17.953 3.01
v  1.24437 17.953 -1.99
v  1.24437 -18.333 3.01
v  -7.11192 -18.333 3.01
v  -7.11192 -18.333 -1.99
v  1.24437 -18.333 -1.99
v  15.8638 -6.58271 -6.99
v  15.8638 6.20272 -6.99

# 0 UV coordinates

# 48 vertex normals
vn 0 0 0.0254
vn -0.0179605 -0.0179605 -0
vn -0.0179605 0.0179605 0
vn 0.0254 0 0
vn 0.0236729 -0.00920614 0
vn 0.0236729 0.00920614 0
vn 0 0 -0.0254
vn -0.00546861 1.95289e-19 0.0248043
vn -0.00721507 0.0180377 0.0163629
vn -0.0254 -3.94981e-17 2.93385e-17
vn -0.00943332 0.0235833 1.06276e-17
vn -0.00546861 -2.19807e-18 -0.0248043
vn -0.00721507 0.0180377 -0.0163629
vn -0.00668318 -4.79203e-19 -0.024505
vn -0.0113592 -0.0227185 -0
vn 0.0179605 0.0179605 0
vn 0.0179605 -0.0179605 0
vn -0.0254 0 0
vn -0.0236729 0.00920614 0
vn -0.0236729 -0.00920614 -0
vn 8.0549e-19 0.00994526 -0.023372
vn 0.00943332 0.0235833 0
vn 0 0.0254 0
vn -0.00889448 0.0177889 -0.0157988
vn -0.0113592 0.0227185 0
vn -7.67133e-20 0.00994526 0.023372
vn -0.00889448 0.0177889 0.0157988
vn -0.00668318 -8.38605e-19 0.024505
vn 0.00721507 -0.0180377 -0.0163629
vn 0.00721507 -0.0180377 0.0163629
vn 0.00668318 8.38605e-19 -0.024505
vn 0.00668318 4.79203e-19 0.024505
vn -0.00721507 -0.0180377 0.0163629
vn -8.0549e-19 -0.00994526 0.023372
vn -0.00943332 -0.0235833 -0
vn 0 -0.0254 0
vn 0.00889448 -0.0177889 0.0157988
vn -0.00721507 -0.0180377 -0.0163629
vn 0.0113592 -0.0227185 0
vn 7.67133e-20 -0.00994526 -0.023372
vn 0.00889448 -0.0177889 -0.0157988
vn 0.00889448 0.0177889 0.0157988
vn 0.0113592 0.0227185 0
vn 0.00889448 0.0177889 -0.0157988
vn -3.83567e-20 0.00994526 -0.023372
vn -1.53427e-19 0.00994526 0.023372
vn -0.00546861 3.77609e-18 -0.0248043
vn -0.00546861 -9.65573e-18 0.0248043

# Mesh 'SketchUp' with 84 faces
g SketchUp
usemtl ID3
f  1//1 2//1 3//1
f  3//1 2//1 4//1
f  2//1 5//1 4//1
f  4//1 5//1 6//1
f  7//1 6//1 5//1
f  8//2 9//2 5//2
f  7//2 5//2 9//2
f  10//3 11//3 1//3
f  2//3 1//3 11//3
f  12//4 10//4 3//4
f  1//4 3//4 10//4
f  13//5 12//5 4//5
f  3//5 4//5 12//5
f  14//6 13//6 6//6
f  4//6 6//6 13//6
f  9//4 14//4 7//4
f  6//4 7//4 14//4
f  10//7 12//7 11//7
f  12//7 13//7 11//7
f  11//7 13//7 8//7
f  13//7 14//7 8//7
f  9//7 8//7 14//7
f  15//8 16//8 17//8
f  16//8 15//8 18//8
f  18//8 15//8 19//8
f  19//8 15//8 20//8
f  20//8 15//8 21//8
f  17//8 22//8 15//8
f  22//8 17//8 23//8
f  22//8 23//8 24//8
f  22//8 24//8 25//8
f  22//8 25//8 26//8
f  26//8 25//8 27//8
f  26//8 27//8 28//8
f  26//8 28//8 29//8
f  26//8 29//8 30//8
f  26//8 30//8 31//8
f  26//8 31//8 32//8
f  26//8 32//8 33//8
f  26//8 33//8 34//8
f  26//8 34//8 21//8
f  21//8 34//8 35//8
f  36//8 21//8 35//8
f  37//8 21//8 36//8
f  38//8 21//8 37//8
f  39//8 21//8 38//8
f  40//8 21//8 39//8
f  41//8 21//8 40//8
f  20//8 21//8 42//8
f  42//8 21//8 41//8
f  26//9 21//9 43//9
f  44//10 22//10 26//10
f  22//10 44//10 45//10
f  26//11 46//11 44//11
f  46//11 26//11 43//11
f  45//12 47//12 48//12
f  47//12 45//12 49//12
f  49//12 45//12 50//12
f  50//12 45//12 51//12
f  51//12 45//12 44//12
f  52//12 48//12 47//12
f  53//12 48//12 52//12
f  54//12 48//12 53//12
f  48//12 55//12 56//12
f  55//12 48//12 54//12
f  56//12 55//12 57//12
f  56//12 57//12 58//12
f  56//12 58//12 59//12
f  56//12 59//12 60//12
f  56//12 60//12 61//12
f  56//12 61//12 62//12
f  56//12 62//12 63//12
f  56//12 63//12 64//12
f  65//12 56//12 64//12
f  65//12 44//12 56//12
f  66//12 44//12 65//12
f  67//12 44//12 66//12
f  68//12 44//12 67//12
f  69//12 44//12 68//12
f  70//12 44//12 69//12
f  51//12 44//12 71//12
f  71//12 44//12 72//12
f  72//12 44//12 70//12
f  56//13 44//13 46//13

# Mesh 'SketchUp' with 42 faces
g SketchUp
usemtl ID9
f  73//14 5//14 74//14
f  5//14 73//14 2//14
f  11//15 75//15 76//15
f  75//15 11//15 2//15
f  5//7 6//7 7//7
f  6//7 5//7 4//7
f  4//7 5//7 2//7
f  4//7 2//7 3//7
f  3//7 2//7 1//7
f  9//16 5//16 7//16
f  5//16 9//16 8//16
f  11//17 1//17 2//17
f  1//17 11//17 10//17
f  10//18 3//18 1//18
f  3//18 10//18 12//18
f  12//19 4//19 3//19
f  4//19 12//19 13//19
f  13//20 6//20 4//20
f  6//20 13//20 14//20
f  14//18 7//18 6//18
f  7//18 14//18 9//18
f  14//1 8//1 9//1
f  8//1 14//1 13//1
f  8//1 13//1 11//1
f  11//1 13//1 12//1
f  11//1 12//1 10//1
f  15//21 77//21 78//21
f  77//21 15//21 74//21
f  78//22 45//22 22//22
f  45//22 78//22 79//22
f  77//23 79//23 78//23
f  79//23 77//23 80//23
f  5//24 77//24 74//24
f  5//25 80//25 77//25
f  80//25 5//25 8//25
f  81//26 79//26 80//26
f  79//26 81//26 48//26
f  8//27 81//27 80//27
f  8//28 82//28 81//28
f  82//28 8//28 11//28
f  43//29 21//29 26//29
f  46//30 44//30 56//30

# Mesh 'SketchUp' with 8 faces
g SketchUp
usemtl ID16
f  56//7 81//7 48//7
f  81//7 56//7 82//7
f  11//31 8//31 82//31
f  81//31 82//31 8//31
f  2//32 73//32 5//32
f  74//32 5//32 73//32
f  73//1 15//1 74//1
f  15//1 73//1 21//1

# Mesh 'SketchUp' with 18 faces
g SketchUp
usemtl ID21
f  78//33 15//33 22//33
f  74//34 15//34 77//34
f  78//34 77//34 15//34
f  79//35 78//35 45//35
f  22//35 45//35 78//35
f  80//36 77//36 79//36
f  78//36 79//36 77//36
f  74//37 77//37 5//37
f  79//38 45//38 48//38
f  8//39 5//39 80//39
f  77//39 80//39 5//39
f  48//40 81//40 79//40
f  80//40 79//40 81//40
f  80//41 81//41 8//41
f  2//42 75//42 73//42
f  2//43 11//43 75//43
f  76//43 75//43 11//43
f  11//44 82//44 76//44

# Mesh 'SketchUp_ID46' with 6 faces
g SketchUp_ID46
usemtl ID47
f  75//23 46//23 43//23
f  46//23 75//23 76//23
f  46//45 82//45 56//45
f  82//45 46//45 76//45
f  75//46 21//46 73//46
f  21//46 75//46 43//46

# Mesh 'SketchUp' with 44 faces
g SketchUp
usemtl ID55
f  49//47 52//47 47//47
f  52//47 49//47 53//47
f  53//47 49//47 50//47
f  53//47 50//47 54//47
f  54//47 50//47 51//47
f  54//47 51//47 55//47
f  55//47 51//47 71//47
f  55//47 71//47 57//47
f  57//47 71//47 72//47
f  57//47 72//47 58//47
f  58//47 72//47 70//47
f  58//47 70//47 59//47
f  59//47 70//47 69//47
f  59//47 69//47 60//47
f  60//47 69//47 68//47
f  60//47 68//47 61//47
f  61//47 68//47 67//47
f  61//47 67//47 62//47
f  62//47 67//47 66//47
f  62//47 66//47 63//47
f  63//47 66//47 65//47
f  63//47 65//47 64//47
f  16//48 23//48 17//48
f  23//48 16//48 18//48
f  23//48 18//48 24//48
f  24//48 18//48 19//48
f  24//48 19//48 25//48
f  25//48 19//48 20//48
f  25//48 20//48 27//48
f  27//48 20//48 42//48
f  27//48 42//48 28//48
f  28//48 42//48 41//48
f  28//48 41//48 29//48
f  29//48 41//48 40//48
f  29//48 40//48 30//48
f  30//48 40//48 39//48
f  30//48 39//48 31//48
f  31//48 39//48 38//48
f  31//48 38//48 32//48
f  32//48 38//48 37//48
f  32//48 37//48 33//48
f  33//48 37//48 36//48
f  33//48 36//48 34//48
f  34//48 36//48 35//48

