# Alias OBJ Model File
# Exported from SketchUp, (c) 2000-2012 Trimble Navigation Limited
# File units = meters

mtllib clamshell.mtl

g Mesh1 Model

usemtl _2
v 1.62679 0 2.17
vt -64.0468 -85.4331
vn 0 -1 -0
v 0 0 2.17
vt 0 -85.4331
v 1.50455 0 1.45924
vt -59.2344 -57.4506
v 1.91507 0 1.94907
vt -75.3964 -76.7352
v 1.76339 0 2.17
vt -69.425 -85.4331
f 1/1/1 2/2/1 3/3/1 4/4/1 5/5/1 

vt 69.425 -50.66
vn 0 0.592979 0.805218
v 0.957535 0.15 2.05954
vt 37.6982 -43.3259
vt 0 -50.66
vt 64.0468 -50.66
f 5/6/2 6/7/2 2/8/2 1/9/2 

usemtl _4
vt -45.5098 -74.1899
vn 0.166616 0.979364 0.114389
vt -31.138 -103.41
vt -20.5876 -103.41
f 6/10/3 5/11/3 4/12/3

vt -86.3599 23.8792
vn 0.140424 0.983072 -0.117687
vt -107.241 -8.35283
vt -82.0797 -8.35283
f 6/13/4 4/14/4 3/15/4

usemtl _2
vt 29.0194 69.4974
vn 0.186473 -0.899674 0.394733
vt -0.548091 83.0248
vt -36.4919 69.4974
f 3/16/5 6/17/5 2/18/5

v 3.09384 0 0.151018
vt -121.805 -5.94561
v 3.39893 0 0.285617
vt -133.816 -11.2447
v 3.39893 0 0.564337
vt -133.816 -22.218
f 3/3/1 2/2/1 7/19/1 8/20/1 9/21/1 

vt 111.504 -37.745
vn 0.372677 0.488625 0.788896
v 1.69946 0.225 1.22781
vt 39.8498 -27.5922
vt -36.4919 -37.745
vt 29.0194 -37.745
f 9/22/6 10/23/6 2/24/6 3/25/6 

usemtl _4
vt -48.3389 -65.1666
vn 0.131249 0.991349 -1.28459e-15
vt -22.218 -132.658
vt -11.2447 -132.658
f 10/26/7 9/27/7 8/28/7

vt -80.727 18.3138
vn 0.0580593 0.989601 -0.131598
vt -126.969 -43.2718
vt -113.841 -43.2718
f 10/29/8 8/30/8 7/31/8

usemtl _2
vt 98.7568 37.7444
vn 0.46427 -0.527552 0.711437
vt 29.6149 48.1718
vt -46.6897 37.7444
f 7/32/9 10/33/9 2/34/9

v 3.79569 0 -0.698772
vt -149.437 27.5107
v 3.79569 0 -0.30699
vt -149.437 12.0862
v 3.42734 0 -0.765384
vt -134.934 30.1332
f 11/35/1 12/36/1 7/19/1 2/2/1 13/37/1 

usemtl _4
v 1.89784 0.3 0.735614
vt -28.9612 -71.9578
vn 0.156135 0.987736 -0
vt 12.0862 -147.604
vt 27.5107 -147.604
f 14/38/10 12/39/10 11/40/10

usemtl _2
vt 131.752 -34.3268
vn 0.479497 0.479784 0.734772
vt 46.7457 -20.8652
vt -46.6897 -34.3268
vt 98.7568 -34.3268
f 12/41/11 14/42/11 2/43/11 7/44/11 

vt 122.086 28.253
vn 0.585593 -0.435416 0.683735
vt 37.9104 41.373
vt -55.5736 28.253
f 13/45/12 14/46/12 2/47/12

usemtl _4
vt -78.6794 16.9806
vn 0.0300802 0.98561 -0.16634
vt -142.156 -52.8916
vt -127.419 -52.8916
f 14/48/13 11/49/13 13/50/13

usemtl _2
v 3.24828 0 -1.60543
vt -127.885 63.2059
v 3.68769 0 -1.42838
vt -145.185 56.2354
v 3.76864 0 -1.0577
vt -148.372 41.6416
f 13/37/1 2/2/1 15/51/1 16/52/1 17/53/1 

vt 139.778 -26.4099
vn 0.594176 0.40701 0.693756
v 1.84385 0.375 0.370811
vt 45.6383 -10.2467
vt -55.5736 -26.4099
vt 122.086 -26.4099
f 17/54/14 18/55/14 2/56/14 13/57/14 

usemtl _4
vt -29.7499 -64.3326
vn 0.165239 0.985593 -0.0360836
vt 9.02871 -151.623
vt 23.9663 -151.623
f 18/58/15 17/59/15 16/60/15

vt -72.7882 -11.1017
vn 0.0587002 0.987588 -0.145683
vt -113.647 -105.1
vt -94.9961 -105.1
f 18/61/16 16/62/16 15/63/16

usemtl _2
vt 131.32 28.6002
vn 0.650567 -0.513288 0.559731
vt 36.2784 45.8031
vt -64.7621 28.6002
f 15/64/17 18/65/17 2/66/17

vn -1.74883e-15 -1 -1.50505e-15
v 2.67806 2.29581e-15 -2.46889
vt -105.435 97.2004
v 3.2935 1.1479e-15 -2.41698
vt -129.665 95.1568
v 3.53177 0 -1.93492
vt -139.046 76.1781
f 15/51/18 2/2/18 19/67/18 20/68/18 21/69/18 

vt 148.433 -26.8533
vn 0.664204 0.481935 0.571464
v 1.64675 0.45 -0.123492
vt 45.9696 -6.6337
vt -64.7621 -26.8533
vt 131.32 -26.8533
f 21/70/19 22/71/19 2/72/19 15/73/19 

usemtl _4
vt -24.3692 -56.1682
vn 0.159274 0.984091 -0.0787257
vt 6.6791 -155.885
vt 27.8497 -155.885
f 22/74/20 21/75/20 20/76/20

vt -64.1947 -6.8864
vn 0.0153412 0.983198 -0.181896
vt -121.209 -103.941
vt -96.8934 -103.941
f 22/77/21 20/78/21 19/79/21

usemtl _2
vt 136.894 22.5354
vn 0.735703 -0.527587 0.424726
vt 36.6251 43.3906
vt -73.9886 22.5354
f 19/80/22 22/81/22 2/82/22

vn 3.93328e-16 -1 -2.63743e-16
v 1.79188 2.16689e-15 -3.2382
vt -70.5465 127.488
v 2.42187 2.32121e-15 -3.2382
vt -95.3493 127.488
v 2.8877 2.47553e-15 -2.83203
vt -113.689 111.497
f 19/67/23 2/2/23 23/83/23 24/84/23 25/85/23 

vt 153.403 -19.2674
vn 0.772929 0.451078 0.446217
v 1.21094 0.6 -0.534102
vt 42.0468 7.20036
vt -73.9886 -19.2674
vt 136.894 -19.2674
f 25/86/24 26/87/24 2/88/24 19/89/24 

usemtl _4
vt -22.1142 -41.2646
vn 0.136122 0.978314 -0.156116
vt -12.4145 -155.311
vt 11.9177 -155.311
f 26/90/25 25/91/25 24/92/25

vt 47.6747 -15.4114
vn 7.82412e-16 -0.976257 0.216617
vt 70.5465 -124.461
vt 95.3493 -124.461
f 26/93/26 23/94/26 24/95/26

usemtl _2
vt 143.206 11.9848
vn 0.849598 -0.446032 0.281494
vt 34.9548 38.3777
vt -81.0976 11.9848
f 23/96/27 26/97/27 2/98/27

vn 2.06558e-16 -1 -3.29328e-16
v 0.686341 2.1657e-15 -3.89792
vt -27.0213 153.462
v 1.3865 2.24375e-15 -3.91559
vt -54.5866 154.157
v 1.91999 2.32181e-15 -3.62485
vt -75.5901 142.711
f 23/83/28 2/2/28 27/99/28 28/100/28 29/101/28 

vt 159.243 -10.8803
vn 0.867949 0.404927 0.287575
v 0.69325 0.675 -0.872797
vt 41.2024 18.1839
vt -81.0976 -10.8803
vt 143.206 -10.8803
f 29/102/29 30/103/29 2/104/29 23/105/29 

usemtl _4
vt -7.52202 -36.354
vn 0.104926 0.975665 -0.192531
vt 1.9184 -157.553
vt 25.8385 -157.553
f 30/106/30 29/107/30 28/108/30

vt -30.8843 -149.063
vn -0.00549546 0.975987 -0.21776
vt -28.1515 -27.0655
vt -58.4583 -149.063
f 27/109/31 30/110/31 28/111/31

usemtl _2
vt -37.2119 34.267
vn -0.883799 0.457062 -0.0999663
vt -155.526 4.38874
vt 84.8918 4.38874
f 30/112/32 27/113/32 2/114/32

v -6.76792e-16 0.75 -1.06396
vt -41.6229 28.6248
vn -0.894188 -0.436116 -0.101141
vt -155.526 -4.18763
vt 84.8918 -4.18763
f 31/115/33 27/116/33 2/117/33

usemtl _4
vt -53.9263 -141.195
vn -0.130538 -0.965811 0.223985
vt -21.0919 -27.2983
v -1.35358e-15 2.1657e-15 -4.29792
vt -85.2017 -141.195
f 27/118/34 31/119/34 32/120/34

v -0.686341 2.1657e-15 -3.89792
vn -0.130538 0.965811 -0.223985
f 33/118/35 31/119/35 32/120/35

usemtl _2
vn -0.894188 0.436116 0.101141
f 31/115/36 33/116/36 2/117/36

vn -1.95143e-16 -1 -3.34837e-16
vt 27.0213 153.462
vt 5.32907e-14 169.21
v -6.76792e-16 1.08285e-15 -1.06396
vt 2.66454e-14 41.8883
f 2/2/37 33/121/37 32/122/37 34/123/37 

vn -2.1291e-16 -1 -3.27828e-16
v -1.79188 2.16573e-15 -3.2382
vt 70.5465 127.488
v -1.91999 2.33493e-15 -3.62485
vt 75.5901 142.711
v -1.3865 2.23341e-15 -3.91559
vt 54.5866 154.157
f 2/2/38 35/124/38 36/125/38 37/126/38 33/121/38 

vn -3.92319e-16 -1 -2.64887e-16
v -2.67806 2.30109e-15 -2.46889
vt 105.435 97.2004
v -2.8877 2.47029e-15 -2.83203
vt 113.689 111.497
v -2.42187 2.33493e-15 -3.2382
vt 95.3493 127.488
f 2/2/39 38/127/39 39/128/39 40/129/39 35/124/39 

v -1.64675 0.45 -0.123492
vt -36.6251 43.3906
vn -0.735703 -0.527587 0.424726
vt -136.894 22.5354
vt 73.9886 22.5354
f 41/130/40 38/131/40 2/132/40

usemtl _4
v -3.2935 1.15055e-15 -2.41698
vt 121.209 -103.941
vn -0.0153412 0.983198 -0.181896
vt 64.1947 -6.8864
vt 96.8934 -103.941
f 42/133/41 41/134/41 38/135/41

v -3.53177 0 -1.93492
vt -6.6791 -155.885
vn -0.159274 0.984091 -0.0787257
vt 24.3692 -56.1682
vt -27.8497 -155.885
f 43/136/42 41/137/42 42/138/42

usemtl _2
vt -45.9696 -6.6337
vn -0.664204 0.481935 0.571464
vt -148.433 -26.8533
v -3.24828 0 -1.60543
vt -131.32 -26.8533
vt 64.7621 -26.8533
f 41/139/43 43/140/43 44/141/43 2/142/43 

vn 1.75286e-15 -1 -1.50852e-15
vt 127.885 63.2059
vt 139.046 76.1781
vt 129.665 95.1568
f 2/2/44 44/143/44 43/144/44 42/145/44 38/127/44 

v -1.84385 0.375 0.370811
vt -36.2784 45.8031
vn -0.650567 -0.513288 0.559731
vt -131.32 28.6002
vt 64.7621 28.6002
f 45/146/45 44/147/45 2/148/45

usemtl _4
v -3.68769 0 -1.42838
vt 113.647 -105.1
vn -0.0587002 0.987588 -0.145683
vt 72.7882 -11.1017
vt 94.9961 -105.1
f 46/149/46 45/150/46 44/151/46

v -3.76864 0 -1.0577
vt -9.02871 -151.623
vn -0.165239 0.985593 -0.0360836
vt 29.7499 -64.3326
vt -23.9663 -151.623
f 47/152/47 45/153/47 46/154/47

usemtl _2
vt -45.6383 -10.2467
vn -0.594176 0.40701 0.693756
vt -139.778 -26.4099
v -3.42734 0 -0.765384
vt -122.086 -26.4099
vt 55.5736 -26.4099
f 45/155/48 47/156/48 48/157/48 2/158/48 

vt 134.934 30.1332
vt 148.372 41.6416
vt 145.185 56.2354
f 2/2/1 48/159/1 47/160/1 46/161/1 44/143/1 

v -1.89784 0.3 0.735614
vt -37.9104 41.373
vn -0.585593 -0.435416 0.683735
vt -122.086 28.253
vt 55.5736 28.253
f 49/162/49 48/163/49 2/164/49

usemtl _4
v -3.79569 0 -0.698772
vt 142.156 -52.8916
vn -0.0300802 0.98561 -0.16634
vt 78.6794 16.9806
vt 127.419 -52.8916
f 50/165/50 49/166/50 48/167/50

v -3.79569 0 -0.30699
vt -12.0862 -147.604
vn -0.156135 0.987736 -0
vt 28.9612 -71.9578
vt -27.5107 -147.604
f 51/168/51 49/169/51 50/170/51

usemtl _2
vt -46.7457 -20.8652
vn -0.479497 0.479784 0.734772
vt -131.752 -34.3268
v -3.09384 0 0.151018
vt -98.7568 -34.3268
vt 46.6897 -34.3268
f 49/171/52 51/172/52 52/173/52 2/174/52 

vt 149.437 12.0862
vt 149.437 27.5107
vt 121.805 -5.94561
f 51/175/1 50/176/1 48/159/1 2/2/1 52/177/1 

v -1.69946 0.225 1.22781
vt -29.6149 48.1718
vn -0.46427 -0.527552 0.711437
vt -98.7568 37.7444
vt 46.6897 37.7444
f 53/178/53 52/179/53 2/180/53

usemtl _4
v -3.39893 0 0.285617
vt 126.969 -43.2718
vn -0.0580593 0.989601 -0.131598
vt 80.727 18.3138
vt 113.841 -43.2718
f 54/181/54 53/182/54 52/183/54

v -3.39893 0 0.564337
vt 22.218 -132.658
vn -0.131249 0.991349 6.42293e-16
vt 48.3389 -65.1666
vt 11.2447 -132.658
f 55/184/55 53/185/55 54/186/55

usemtl _2
vt -39.8498 -27.5922
vn -0.372677 0.488625 0.788896
vt -111.504 -37.745
v -1.50455 0 1.45924
vt -29.0194 -37.745
vt 36.4919 -37.745
f 53/187/56 55/188/56 56/189/56 2/190/56 

vt 59.2344 -57.4506
vt 133.816 -22.218
vt 133.816 -11.2447
f 2/2/1 56/191/1 55/192/1 54/193/1 52/177/1 

v -0.957535 0.15 2.05954
vt 0.548091 83.0248
vn -0.186473 -0.899674 0.394733
vt -29.0194 69.4974
vt 36.4919 69.4974
f 57/194/57 56/195/57 2/196/57

usemtl _4
v -1.91507 0 1.94907
vt 107.241 -8.35283
vn -0.140424 0.983072 -0.117687
vt 86.3599 23.8792
vt 82.0797 -8.35283
f 58/197/58 57/198/58 56/199/58

v -1.76339 0 2.17
vt 31.138 -103.41
vn -0.166616 0.979364 0.114389
vt 45.5098 -74.1899
vt 20.5876 -103.41
f 59/200/59 57/201/59 58/202/59

usemtl _2
vt -37.6982 -43.3259
vt -69.425 -50.66
v -1.62679 0 2.17
vt -64.0468 -50.66
f 57/203/2 59/204/2 60/205/2 2/8/2 

vt 64.0468 -85.4331
vt 69.425 -85.4331
vt 75.3964 -76.7352
f 2/2/1 60/206/1 59/207/1 58/208/1 56/191/1 

v -1.21094 0.6 -0.534102
vt -42.0468 7.20036
vn -0.772929 0.451078 0.446217
vt -153.403 -19.2674
vt -136.894 -19.2674
vt 73.9886 -19.2674
f 61/209/60 39/210/60 38/211/60 2/212/60 

usemtl _4
vt 12.4145 -155.311
vn -0.136122 0.978314 -0.156116
vt 22.1142 -41.2646
vt -11.9177 -155.311
f 39/213/61 61/214/61 40/215/61

vt -70.5465 -124.461
vn -3.91206e-16 -0.976257 0.216617
vt -47.6747 -15.4114
vt -95.3493 -124.461
f 35/216/62 61/217/62 40/218/62

usemtl _2
vt -34.9548 38.3777
vn -0.849598 -0.446032 0.281494
vt -143.206 11.9848
vt 81.0976 11.9848
f 61/219/63 35/220/63 2/221/63

v -0.69325 0.675 -0.872797
vt -41.2024 18.1839
vn -0.867949 0.404927 0.287575
vt -159.243 -10.8803
vt -143.206 -10.8803
vt 81.0976 -10.8803
f 62/222/64 36/223/64 35/224/64 2/225/64 

usemtl _4
vt -1.9184 -157.553
vn -0.104926 0.975665 -0.192531
vt 7.52202 -36.354
vt -25.8385 -157.553
f 36/226/65 62/227/65 37/228/65

vt 28.1515 -27.0655
vn 0.00549546 0.975987 -0.21776
vt 30.8843 -149.063
vt 58.4583 -149.063
f 62/229/66 33/230/66 37/231/66

usemtl _2
vt 155.526 4.38874
vn 0.883799 0.457062 -0.0999663
vt 37.2119 34.267
vt -84.8918 4.38874
f 33/232/67 62/233/67 2/234/67

vt 169.21 8.52638e-14
vn 1 0 -2.09276e-16
vt 41.8883 29.5276
vt 41.8883 4.26319e-14
f 32/235/68 31/236/68 34/237/68

vt -85.4331 0
f 31/236/68 2/238/68 34/237/68

vn 1.95143e-16 -1 -3.34837e-16
f 32/122/69 27/99/69 2/2/69 34/123/69 

