# Alias OBJ Model File
# Exported from SketchUp, (c) 2000-2012 Trimble Navigation Limited
# File units = meters

mtllib corycatfish.mtl

g Mesh1 Model

usemtl LightBrown
v 5.55492 -0.36 0.05
vt -218.698 -14.1732
vn 1.02397e-17 -4.06068e-17 -1
v 5.05492 -0.225 0.05
vt -199.013 -8.85827
v 4.87492 0.415481 0.05
vt -191.926 16.3575
v 5.05492 1.05596 0.05
vt -199.013 41.5733
v 5.55492 1.19096 0.05
vt -218.698 46.8883
v 6.55492 1.29096 0.05
vt -258.068 50.8253
v 6.30492 0.853222 0.05
vt -248.225 33.5914
v 5.92401 0.415481 0.05
vt -233.229 16.3575
v 6.30492 -0.0222593 0.05
vt -248.225 -0.876349
v 6.55492 -0.46 0.05
vt -258.068 -18.1102
f 1/1/1 2/2/1 3/3/1 4/4/1 5/5/1 6/6/1 7/7/1 8/8/1 9/9/1 10/10/1 

usemtl DarkBrown
v 5.05492 -0.225 -0.05
vt 1.9685 -194.442
vn 0.260666 0.965429 2.1907e-15
vt -1.9685 -194.442
vt -1.9685 -214.832
v 5.55492 -0.36 -0.05
vt 1.9685 -214.832
f 11/11/2 2/12/2 1/13/2 12/14/2 

v 4.55492 -0.09 -0.15
vt -5.90551 -174.052
vn -0.260666 -0.965429 -1.12943e-15
v 4.55492 -0.09 0.15
vt 5.90551 -174.052
f 13/15/3 11/12/3 2/11/3 14/16/3 

vt -174.021 -6.13056
vn 0.211152 0.059342 -0.97565
v 4.87492 0.415481 -0.05
vt -187.167 13.8054
vt -194.093 -11.4549
f 13/17/4 15/18/4 11/19/4

vt -182.603 16.3575
vn 0.298275 0 -0.95448
vt -169.403 -3.54331
v 4.55492 0.415481 -0.15
vt -169.403 16.3575
v 4.55492 0.920963 -0.15
vt -169.403 36.2584
f 15/20/5 13/21/5 16/22/5 17/23/5 

usemtl DarkGreen
v 2.96995 0.123839 -0.3
vt 115.294 4.87556
vn -0.0942176 -7.04569e-18 0.995552
vt 177.974 -3.54331
vt 177.974 16.3575
f 18/24/6 13/25/6 16/26/6

usemtl Pink
vt 178.061 -2.90202
vn -0.090303 0.0289739 0.995493
vt 115.382 5.52039
v 2.85 -0.25 -0.3
vt 110.679 -9.20388
f 13/27/7 18/28/7 19/29/7

v 2.3 -0.5 -0.3
vt 90.5512 -19.685
vn 0 0 1
vt 112.205 -9.84252
vt 116.927 4.87556
v 2.96995 0.883839 -0.3
vt 116.927 34.7968
v 2.92492 1.19096 -0.3
vt 115.155 46.8883
v 1.25 1.875 -0.3
vt 49.2126 73.8189
v 0.52 2 -0.3
vt 20.4724 78.7402
v 0.02 2 -0.3
vt 0.787402 78.7402
v -0.98 1.75 -0.3
vt -38.5827 68.8976
v -1.98 1.25 -0.3
vt -77.9528 49.2126
v -2.98 0.25 -0.3
vt -117.323 9.84252
v -2.98 0 -0.3
vt -117.323 0
v -1.14 -0.75 -0.3
vt -44.8819 -29.5276
v 0.15 -0.75 -0.3
vt 5.90551 -29.5276
v 0.94 -0.5 -0.3
vt 37.0079 -19.685
f 20/30/8 19/31/8 18/32/8 21/33/8 22/34/8 23/35/8 24/36/8 25/37/8 26/38/8 27/39/8 28/40/8 29/41/8 30/42/8 31/43/8 32/44/8 

vt 11.811 74.289
vn 0.413803 -0.910366 5.3914e-32
vt 11.811 98.0746
v 2.85 -0.25 -0.05
vt 1.9685 98.0746
v 2.3 -0.5 -0.05
vt 1.9685 74.289
f 20/45/9 19/46/9 33/47/9 34/48/9 

v 1.49497 -0.0233739 -0.675
vt -52.4189 14.2381
vn 0.18175 -0.39985 -0.89838
vt -107.635 4.50376
vt -86.4111 -6.23455
f 35/49/10 19/50/10 20/51/10

vt -105.523 -6.56632
vn 0.253197 -0.0812386 -0.963998
vt -50.1754 2.38555
vt -110.091 8.20057
f 19/52/11 35/53/11 18/54/11

usemtl DarkGreen
vt -50.4944 -0.920234
vn 0.246403 -6.28394e-17 -0.969167
v 0.02 -0.170587 -1.05
vt 9.42282 -6.71603
v 0.02 0.415481 -1.05
vt 9.42282 16.3575
v 1.49497 0.64966 -0.675
vt -50.4944 25.5772
vt -110.412 34.7968
vt -110.412 4.87556
f 35/55/12 36/56/12 37/57/12 38/58/12 21/59/12 18/60/12 

usemtl Pink
vt -30.4722 5.21984
vn 0.231609 -0.753646 -0.615122
vt 13.8298 24.9512
vt -45.7178 33.769
f 32/61/13 36/62/13 35/63/13

vt 14.032 24.6588
vn 0.236878 -0.748536 -0.619341
vt -30.3467 5.10051
vt -1.29657 -9.74281
f 36/64/14 32/65/14 31/66/14

vt 11.811 29.3442
vn 0.301709 -0.9534 -5.51847e-16
v 0.94 -0.5 0.3
vt -11.811 29.3442
v 0.15 -0.75 0.3
vt -11.811 -3.27841
vt 11.811 -3.27841
f 32/67/15 39/68/15 40/69/15 31/70/15 

vt -90.5512 11.811
vn -4.82979e-31 -1 -6.42798e-16
vt -90.5512 1.9685
v 2.3 -0.5 0.05
vt -90.5512 -1.9685
v 2.3 -0.5 0.3
vt -90.5512 -11.811
vt -37.0079 -11.811
vt -37.0079 11.811
f 20/71/16 34/72/16 41/73/16 42/74/16 39/75/16 32/76/16 

vt -1.9685 74.289
vn 0.413803 -0.910366 -2.34271e-15
v 2.85 -0.25 0.05
vt -1.9685 98.0746
f 41/77/17 34/48/17 33/47/17 43/78/17 

vt 1.9685 -92.1293
vn 0.316228 0.948683 1.73956e-15
vt -1.9685 -92.1293
v 3.05 -0.75 0.05
vt -1.9685 -123.254
v 3.05 -0.75 -0.05
vt 1.9685 -123.254
f 34/79/18 41/80/18 44/81/18 45/82/18 

usemtl LightBrown
vt 120.079 -29.5276
vn 1.3038e-17 7.28944e-17 1
v 3.05 -0.5 0.05
vt 120.079 -19.685
f 44/83/19 46/84/19 43/31/19 41/30/19 

vt -1.9685 -29.5276
vn 1 0 -0
vt 1.9685 -29.5276
v 3.05 -0.5 -0.05
vt 1.9685 -19.685
vt -1.9685 -19.685
f 44/85/20 45/86/20 47/87/20 46/88/20 

vt -120.079 -19.685
vn 0 0 -1
vt -120.079 -29.5276
vt -90.5512 -19.685
vt -112.205 -9.84252
f 47/89/21 45/90/21 34/91/21 33/92/21 

vt -1.9685 -90.384
vn 0.780869 0.624695 1.66452e-15
vt 1.9685 -90.384
vt 1.9685 -77.7795
vt -1.9685 -77.7795
f 46/93/22 47/94/22 33/95/22 43/96/22 

usemtl Pink
vt 5.90551 178.212
vn 0.0934352 -0.995625 -5.3773e-16
vt -5.90551 178.212
v 2.85 -0.25 0.3
vt -11.811 110.794
vt -1.9685 110.794
vt 1.9685 110.794
vt 11.811 110.794
f 13/97/23 14/98/23 48/99/23 43/100/23 33/101/23 19/102/23 

usemtl DarkBrown
vt -5.90551 -3.54331
vn -1 0 -0
vt 5.90551 -3.54331
v 4.55492 0.415481 0.15
vt 5.90551 16.3575
v 4.55492 0.920963 0.15
vt 5.90551 36.2584
vt -5.90551 36.2584
vt -5.90551 16.3575
f 13/103/24 14/104/24 49/105/24 50/106/24 17/107/24 16/108/24 

vt 169.403 -3.54331
vn 0.298275 3.16265e-16 0.95448
vt 182.603 16.3575
vt 169.403 36.2584
vt 169.403 16.3575
f 14/109/25 3/110/25 50/111/25 49/112/25 

vt 187.167 13.8054
vn 0.211152 0.059342 0.97565
vt 174.021 -6.13056
vt 194.093 -11.4549
f 3/113/26 14/114/26 2/115/26

vt 174.021 38.788
vn 0.211152 -0.059342 0.97565
vt 187.167 18.852
vt 194.093 44.1123
f 50/116/27 3/117/27 4/118/27

vt -5.90551 182.58
vn -0.260666 0.965429 1.38213e-15
vt 5.90551 182.58
vt 1.9685 202.969
v 5.05492 1.05596 -0.05
vt -1.9685 202.969
f 17/119/28 50/120/28 4/121/28 51/122/28 

v 2.92492 1.19096 -0.05
vt 1.9685 -105.944
vn 0.163417 0.986557 3.4487e-16
v 3.42492 1.10814 -0.05
vt 1.9685 -125.897
v 3.42492 1.10814 0.05
vt -1.9685 -125.897
v 2.92492 1.19096 0.05
vt -1.9685 -105.944
v 2.92492 1.19096 0.3
vt -11.811 -105.944
vt -5.90551 -170.992
vt 5.90551 -170.992
vt 11.811 -105.944
f 52/123/29 53/124/29 54/125/29 55/126/29 56/127/29 50/128/29 17/129/29 22/130/29 

usemtl LightBrown
v 3.47492 1.19955 -0.05
vt 136.808 47.2265
v 3.42492 1.29096 -0.05
vt 134.84 50.8253
vt 134.84 43.6276
f 57/131/8 58/132/8 52/34/8 53/133/8 

usemtl DarkBrown
vt -1.9685 -24.2186
vn -0.877332 -0.479883 -1.94005e-18
v 3.47492 1.19955 0.05
vt 1.9685 -24.2186
v 3.42492 1.29096 0.05
vt 1.9685 -20.1165
vt -1.9685 -20.1165
f 57/134/30 59/135/30 60/136/30 58/137/30 

vt -1.9685 102.983
vn -0.877332 0.479883 8.65769e-16
vt 1.9685 102.983
vt 1.9685 107.085
vt -1.9685 107.085
f 53/138/31 54/139/31 59/140/31 57/141/31 

vn 0.163417 0.986557 1.75889e-15
f 54/125/32 53/124/32 52/123/32 55/126/32 

vt -11.811 -88.879
vn -0.378084 -0.925771 3.80191e-17
vt -1.9685 -88.879
vt 1.9685 -88.879
vt 11.811 -88.879
v 1.25 1.875 0.3
vt 11.811 -17.6499
v 1.25 1.875 0.05
vt 1.9685 -17.6499
v 1.47591 1.78274 0.05
vt 1.9685 -27.2571
v 1.47591 1.78274 -0.05
vt -1.9685 -27.2571
v 1.25 1.875 -0.05
vt -1.9685 -17.6499
vt -11.811 -17.6499
f 22/142/33 52/143/33 55/144/33 56/145/33 61/146/33 62/147/33 63/148/33 64/149/33 65/150/33 23/151/33 

usemtl LightBrown
vt 1.9685 142.189
vn 0.196116 -0.980581 -0
vt -1.9685 142.189
vt -1.9685 122.114
vt 1.9685 122.114
f 58/152/34 60/153/34 55/154/34 52/155/34 

vt -134.84 50.8253
vn -1.25727e-16 6.78289e-16 -1
vt -136.808 47.2265
vt -134.84 43.6276
vt -115.155 46.8883
f 60/156/35 59/157/35 54/158/35 55/159/35 

usemtl Pink
vn 9.31675e-19 -1.54172e-16 -1
vt -37.0079 -19.685
vt -5.90551 -29.5276
v -1.14 -0.75 0.3
vt 44.8819 -29.5276
v -2.98 0 0.3
vt 117.323 -1.82093e-15
v -2.98 0.25 0.3
vt 117.323 9.84252
v -1.98 1.25 0.3
vt 77.9528 49.2126
v -0.98 1.75 0.3
vt 38.5827 68.8976
v 0.02 2 0.3
vt -0.787402 78.7402
v 0.52 2 0.3
vt -20.4724 78.7402
vt -49.2126 73.8189
v 2.96995 0.883839 0.3
vt -116.927 34.7968
v 2.96995 0.123839 0.3
vt -116.927 4.87556
f 48/92/36 42/91/36 39/160/36 40/161/36 66/162/36 67/163/36 68/164/36 69/165/36 70/166/36 71/167/36 72/168/36 61/169/36 56/159/36 73/170/36 74/171/36 

vt -11.811 98.0746
vn 0.413803 -0.910366 -3.3386e-17
vt -11.811 74.289
f 48/172/37 42/173/37 41/77/37 43/78/37 

vt 107.635 4.50376
vn 0.18175 -0.39985 0.89838
v 1.49497 -0.0233739 0.675
vt 52.4189 14.2381
vt 86.4111 -6.23455
f 48/174/38 75/175/38 42/176/38

vt 50.1754 2.38555
vn 0.253197 -0.0812386 0.963998
vt 105.523 -6.56632
vt 110.091 8.20057
f 75/177/39 48/178/39 74/179/39

vt -115.382 5.52039
vn -0.090303 0.0289739 -0.995493
vt -178.061 -2.90202
vt -110.679 -9.20388
f 74/180/40 14/181/40 48/182/40

usemtl DarkGreen
vt -177.974 -3.54331
vn -0.0942176 -3.45239e-16 -0.995552
vt -115.294 4.87556
vt -177.974 16.3575
f 14/183/41 74/184/41 49/185/41

vn -0.0942176 4.98685e-17 -0.995552
vt -115.294 34.7968
f 49/185/42 74/184/42 73/186/42

v 0.02 -0.170587 1.05
vt -9.42282 -6.71603
vn 0.246403 -6.28394e-17 0.969167
vt 50.4944 -0.920234
vt 110.412 4.87556
vt 110.412 34.7968
v 1.49497 0.64966 0.675
vt 50.4944 25.5772
v 0.02 0.415481 1.05
vt -9.42282 16.3575
f 76/187/43 75/188/43 74/189/43 73/190/43 77/191/43 78/192/43 

usemtl Pink
vt -13.8298 24.9512
vn 0.231609 -0.753646 0.615122
vt 30.4722 5.21984
vt 45.7178 33.769
f 76/193/44 39/194/44 75/195/44

vt 30.3467 5.10051
vn 0.236878 -0.748536 0.619341
vt -14.032 24.6588
vt 1.29657 -9.74281
f 39/196/45 76/197/45 40/198/45

vt -44.8819 -8.70528
vn 1.84314e-17 -0.791353 0.61136
vt 5.90551 -8.70528
vt 0.787402 28.6075
v -0.382338 -0.170587 1.05
vt -15.0527 28.6075
v -0.784676 -0.170587 1.05
vt -30.8927 28.6075
f 66/199/46 40/200/46 76/201/46 79/202/46 80/203/46 

vt -5.90551 11.811
vn 0 -1 -0
vt -5.90551 -11.811
vt 44.8819 -11.811
vt 44.8819 11.811
f 31/204/47 40/205/47 66/206/47 30/207/47 

vt -11.811 30.4165
vn -0.377457 -0.926027 1.18943e-16
vt 11.811 30.4165
vt 11.811 108.644
vt -11.811 108.644
f 30/208/48 66/209/48 67/210/48 29/211/48 

vt -36.7561 -1.80492
vn -0.281367 -0.690288 0.666585
vt -12.3854 29.723
v -2.84183 -0.0107367 0.347205
vt -97.7607 38.421
vt -103.495 39.0052
f 66/212/49 80/213/49 81/214/49 67/215/49 

usemtl DarkGreen
vt -107.204 9.84252
vn -0.323289 -1.74135e-17 0.9463
vt -107.204 8.55106e-16
v -2.86498 0.117528 0.339296
vt -102.419 4.6271
vt -101.456 -0.422705
vt -15.8695 -6.71603
v -0.784676 0.415481 1.05
vt -15.8695 16.3575
f 68/216/50 67/217/50 82/218/50 81/219/50 80/220/50 83/221/50 

usemtl DarkBrown
vt -11.811 0
vt 11.811 0
vt 11.811 9.84252
vt -11.811 9.84252
f 29/222/24 67/223/24 68/224/24 28/225/24 

vt -11.811 -76.0001
vn -0.707107 0.707107 1.47667e-15
vt 11.811 -76.0001
vt 11.811 -20.3224
vt -11.811 -20.3224
f 28/226/51 68/227/51 69/228/51 27/229/51 

vt -14.6506 -0.74895
vn -0.327475 0.327475 0.886296
vt -69.0276 34.0235
vt -105.957 -7.64417
f 83/230/52 69/231/52 68/232/52

vt -19.4142 -7.01673
vn -0.225958 0.451917 0.862968
vt -34.3327 51.8807
vt -72.4188 29.8138
f 83/233/53 70/234/53 69/235/53

vt -25.0605 -6.94124
vn -0.118318 0.473272 0.872934
vt 2.36663 63.8744
vt -36.6467 52.7013
f 83/236/54 71/237/54 70/238/54

vt 0.787402 66.1172
vn 0 0.427825 0.903862
vt -30.8927 -2.90072
vt 0.787402 -2.90072
f 71/239/55 83/240/55 78/241/55

usemtl DarkGreen
vt 0.787402 -6.71603
vt 0.787402 16.3575
vt -30.8927 16.3575
vt -30.8927 -6.71603
vt -15.0527 -6.71603
f 76/242/8 78/243/8 83/244/8 80/245/8 79/246/8 

usemtl LightBrown
v 0.215324 -0.391926 1.43377
vt 8.47734 -56.607
vn 1.65056e-16 0.866252 0.499608
vt -15.0527 -39.165
vt -30.8927 -39.165
f 84/247/56 79/248/56 80/249/56

vt -46.1181 6.71386
vn 0.582118 0.574952 -0.574952
v 0.215324 -0.641926 1.18377
vt -39.1155 -5.31581
vt -18.8335 17.3644
f 84/250/57 85/251/57 79/252/57

vt -46.6052 -25.2727
vt -56.4477 -15.4302
v 0.215324 -0.641926 1.43377
vt -56.4477 -25.2727
f 85/253/20 84/254/20 86/255/20

usemtl Pink
vt -5.02923 28.2864
vn -0.393381 -0.650097 0.650097
vt 31.3807 3.86497
vt 36.4763 16.8182
f 80/256/58 85/257/58 84/258/58

usemtl LightBrown
vt -8.47734 -37.0371
vn 0 -0.273029 -0.962006
vt 30.8927 -17.7475
vt 15.0527 -17.7475
f 85/259/59 80/260/59 79/261/59

vt 41.3386 25.0808
vn -0.426353 -0.904557 -2.62986e-16
vt 46.6052 -18.4433
vt 56.4477 -18.4433
f 80/262/60 85/263/60 86/264/60

vt -14.0304 -6.71603
vn -0.358293 -5.42864e-16 0.933609
vt 28.1393 -25.2727
vt 28.1393 -15.4302
f 80/265/61 86/266/61 84/267/61

usemtl DarkBrown
vn 2.09331e-16 0.427825 0.903862
vt 20.4724 66.1172
f 78/241/62 72/268/62 71/239/62

vt 17.9297 67.1382
vn 0.171625 0.376712 0.910293
vt -6.88518 -0.205604
vt 52.9146 9.74726
f 72/269/63 78/270/63 77/271/63

vt -48.5004 66.0174
vn -0.0516572 -0.301678 -0.952009
vt -57.3309 15.4182
vt -19.8024 71.1791
f 61/272/64 77/273/64 72/274/64

vt 54.7359 13.5422
vn 0.128054 0.313551 0.940897
vt 112.51 35.9851
vt 47.1703 64.3459
f 77/275/65 56/276/65 61/277/65

vt 108.909 45.4732
vn 0.240977 0.0353257 0.969888
vt 50.7126 24.1488
vt 110.629 33.3742
f 56/278/66 77/279/66 73/280/66

vt -177.981 35.9423
vn -0.0938891 -0.0137635 -0.995488
vt -115.301 34.4806
vt -113.537 46.5732
f 50/281/67 73/282/67 56/283/67

vn -0.0942176 -2.81827e-16 -0.995552
vt -177.974 36.2584
f 73/186/68 50/284/68 49/185/68

vt -11.811 -6.88927
vn 0.168776 0.985654 3.07002e-17
vt -11.811 -36.0477
vt -1.9685 -36.0477
v 0.52 2 0.05
vt -1.9685 -6.88927
f 72/285/69 61/286/69 62/287/69 87/288/69 

usemtl LightBrown
v 1.95296 1.83775 0.05
vt -76.888 72.3524
vn 9.61868e-17 8.34923e-19 -1
vt -58.1067 70.1865
v 0.02 2 0.05
v 0.549071 2.70696 0.05
vt -21.617 106.573
v 1.2308 2.87099 0.05
vt -48.4567 113.031
v 1.68602 2.49566 0.05
vt -66.3787 98.2544
f 88/289/70 63/290/70 62/169/70 87/168/70 89/167/70 90/291/70 91/292/70 92/293/70 

usemtl LightBrown
vt -1.9685 65.7649
vn -0.114562 0.993416 4.00301e-16
vt 1.9685 65.7649
vt 1.9685 84.6707
v 1.95296 1.83775 -0.05
vt -1.9685 84.6707
f 64/294/71 63/295/71 88/296/71 93/297/71 

vt 1.9685 66.0896
vn -0.926633 -0.375967 -1.29962e-15
v 1.68602 2.49566 -0.05
vt -1.9685 66.0896
vt -1.9685 38.1368
vt 1.9685 38.1368
f 92/298/72 94/299/72 93/300/72 88/301/72 

vt 1.9685 34.5185
vn -0.636158 -0.771559 -2.77269e-15
v 1.2308 2.87099 -0.05
vt -1.9685 34.5185
vt -1.9685 11.2902
vt 1.9685 11.2902
f 91/302/73 95/303/73 94/304/73 92/305/73 

vt -1.9685 45.9488
vn 0.233939 -0.972251 -4.3343e-15
v 0.549071 2.70696 -0.05
vt 1.9685 45.9488
vt 1.9685 73.5545
vt -1.9685 73.5545
f 90/306/74 96/307/74 95/308/74 91/309/74 

vt -1.9685 63.513
vn 0.800624 -0.599167 -4.89186e-15
v 0.02 2 -0.05
vt 1.9685 63.513
vt 1.9685 98.2772
vt -1.9685 98.2772
f 89/310/75 97/311/75 96/312/75 90/313/75 

usemtl DarkBrown
vt -11.811 -20.7206
vn -0.242536 0.970143 -1.58396e-16
vt 11.811 -20.7206
vt 11.811 19.8612
vt 1.9685 19.8612
vt -1.9685 19.8612
vt -11.811 19.8612
f 26/314/76 70/315/76 71/316/76 89/317/76 97/318/76 25/319/76 

vt -11.811 -47.7145
vn -0.447214 0.894427 5.4669e-16
vt 11.811 -47.7145
vt 11.811 -3.69744
vt -11.811 -3.69744
f 27/320/77 69/321/77 70/322/77 26/323/77 

vt 34.3327 51.8807
vn -0.225958 0.451917 -0.862968
v -0.784676 0.415481 -1.05
vt 19.4142 -7.01673
vt 72.4188 29.8138
f 26/324/78 98/325/78 27/326/78

vt -2.36663 63.8744
vn -0.118318 0.473272 -0.872934
vt 25.0605 -6.94124
vt 36.6467 52.7013
f 25/327/79 98/328/79 26/329/79

vt 30.8927 -2.90072
vn -8.08224e-17 0.427825 -0.903862
vt -0.787402 66.1172
vt -0.787402 -2.90072
f 98/330/80 25/331/80 37/332/80

vt -20.4724 66.1172
vn 1.04666e-16 0.427825 -0.903862
f 24/333/81 37/332/81 25/331/81

vt 6.88518 -0.205604
vn 0.171625 0.376712 -0.910293
vt -17.9297 67.1382
vt -52.9146 9.74726
f 37/334/82 24/335/82 38/336/82

vt 57.3309 15.4182
vn -0.0516572 -0.301678 0.952009
vt 48.5004 66.0174
vt 19.8024 71.1791
f 38/337/83 23/338/83 24/339/83

vt -112.51 35.9851
vn 0.128054 0.313551 -0.940897
vt -54.7359 13.5422
vt -47.1703 64.3459
f 22/340/84 38/341/84 23/342/84

vt -50.7126 24.1488
vn 0.240977 0.0353257 -0.969888
vt -108.909 45.4732
vt -110.629 33.3742
f 38/343/85 22/344/85 21/345/85

vt 115.301 34.4806
vn -0.0938891 -0.0137635 0.995488
vt 177.981 35.9423
vt 113.537 46.5732
f 21/346/86 17/347/86 22/348/86

usemtl DarkBrown
vt 177.974 36.2584
vn -0.0942176 2.81827e-17 0.995552
vt 115.294 34.7968
f 17/349/87 21/350/87 16/26/87

usemtl DarkGreen
vn -0.0942176 0 0.995552
f 18/24/88 16/26/88 21/350/88

usemtl DarkBrown
vt 11.811 -36.0477
vn 0.168776 0.985654 -0
vt 11.811 -6.88927
v 0.52 2 -0.05
vt 1.9685 -6.88927
vt 1.9685 -36.0477
f 23/351/89 24/352/89 99/353/89 65/354/89 

vt 20.4724 11.811
vn 0 1 -0
vt 0.787402 11.811
vt 0.787402 1.9685
vt 20.4724 1.9685
f 24/355/90 25/356/90 97/357/90 99/358/90 

usemtl LightBrown
vt 58.1067 70.1865
vt 76.888 72.3524
vt 66.3787 98.2544
vt 48.4567 113.031
vt 21.617 106.573
f 64/359/8 93/360/8 94/361/8 95/362/8 96/363/8 97/37/8 99/36/8 65/35/8 

usemtl DarkGreen
vt -0.787402 16.3575
vt -0.787402 -6.71603
v -0.382338 -0.170587 -1.05
vt 15.0527 -6.71603
v -0.784676 -0.170587 -1.05
vt 30.8927 -6.71603
vt 30.8927 16.3575
f 37/364/21 36/365/21 100/366/21 101/367/21 98/368/21 

usemtl Pink
vt -5.90551 -8.70528
vn -6.14381e-18 -0.791353 -0.61136
vt 44.8819 -8.70528
vt 30.8927 28.6075
vt 15.0527 28.6075
vt -0.787402 28.6075
f 31/369/91 30/370/91 101/371/91 100/372/91 36/373/91 

vt 12.3854 29.723
vn -0.281367 -0.690288 -0.666585
vt 36.7561 -1.80492
vt 103.495 39.0052
v -2.84183 -0.0107367 -0.347205
vt 97.7607 38.421
f 101/374/92 30/375/92 29/376/92 102/377/92 

usemtl LightBrown
vt 101.456 -0.422705
vn -0.323289 -1.7859e-14 -0.9463
vt 107.204 8.76984e-13
v -2.86498 0.117528 -0.339296
vt 102.419 4.6271
f 102/378/93 29/379/93 103/380/93

vt 111.503 -16.1076
vn -0.00600689 0.971132 -0.238466
v -2.98 -0.207866 -1.14651
vt 116.149 -48.6427
vt 116.988 -14.3355
f 102/381/94 104/382/94 29/383/94

vt -37.4639 19.3802
vn -0.959415 -0.186211 0.211774
vt -37.3563 24.5199
vt -69.3656 11.481
f 102/384/95 103/385/95 104/386/95

usemtl DarkGreen
vt 107.204 1.02765e-13
vn -0.323289 -2.09272e-15 -0.9463
vt 107.204 9.84252
vt 15.8695 16.3575
vt 15.8695 -6.71603
f 29/387/96 28/388/96 98/389/96 101/390/96 102/378/96 103/380/96 

usemtl DarkBrown
vt 69.0276 34.0235
vn -0.327475 0.327475 -0.886296
vt 14.6506 -0.74895
vt 105.957 -7.64417
f 27/391/97 98/392/97 28/393/97

usemtl LightBrown
vt -11.4141 -71.3269
vn 0.731795 -0.661862 0.162524
vt -13.9062 -77.4994
vt 18.6284 -88.4165
f 103/394/98 29/395/98 104/396/98

vt 15.0527 -39.165
vn 0 0.866252 -0.499608
v 0.215324 -0.391926 -1.43377
vt -8.47734 -56.607
vt 30.8927 -39.165
f 100/397/99 105/398/99 101/399/99

v 0.215324 -0.641926 -1.18377
vt 39.1155 -5.31581
vn 0.582118 0.574952 0.574952
vt 46.1181 6.71386
vt 18.8335 17.3644
f 106/400/100 105/401/100 100/402/100

vt 56.4477 -15.4302
vt 46.6052 -25.2727
v 0.215324 -0.641926 -1.43377
vt 56.4477 -25.2727
f 105/403/20 106/404/20 107/405/20

usemtl Pink
vn 0.393381 0.650097 0.650097
f 101/256/101 106/257/101 105/258/101

usemtl LightBrown
vt -46.6052 -18.4433
vn -0.426353 -0.904557 -1.31493e-15
vt -41.3386 25.0808
vt -56.4477 -18.4433
f 106/406/102 101/407/102 107/408/102

vt -30.8927 -17.7475
vn 0 -0.273029 0.962006
vt 8.47734 -37.0371
vt -15.0527 -17.7475
f 101/409/103 106/410/103 100/411/103

vt -28.1393 -25.2727
vn -0.358293 0 -0.933609
vt 14.0304 -6.71603
vt -28.1393 -15.4302
f 107/412/104 101/413/104 105/414/104

usemtl DarkBrown
vt 0.787402 -11.811
vt 20.4724 -11.811
vt 20.4724 -1.9685
vt 0.787402 -1.9685
f 71/415/90 72/416/90 87/417/90 89/418/90 

usemtl LightBrown
vt 13.9062 -77.4994
vn 0.731795 -0.661862 -0.162524
vt 11.4141 -71.3269
v -2.98 -0.207866 1.14651
vt -18.6284 -88.4165
f 67/419/105 82/420/105 108/421/105

vt -107.204 -2.29542e-13
vn -0.323289 4.67441e-15 0.9463
f 67/422/106 81/219/106 82/218/106

vt -116.149 -48.6427
vn -0.00600689 0.971132 0.238466
vt -111.503 -16.1076
vt -116.988 -14.3355
f 108/423/107 81/424/107 67/425/107

vt 37.3563 24.5199
vn -0.959415 -0.186211 -0.211774
vt 37.4639 19.3802
vt 69.3656 11.481
f 82/426/108 81/427/108 108/428/108

usemtl Pink
vt 90.5512 -8.16747
vn 3.82357e-17 -0.618339 0.785911
vt 58.8572 15.709
vt 37.0079 -8.16747
f 42/429/109 75/430/109 39/431/109

usemtl LightBrown
vt 1.9685 223.359
vn -0.260666 0.965429 1.7946e-15
v 5.55492 1.19096 -0.05
vt -1.9685 223.359
f 5/432/110 109/433/110 51/122/110 4/121/110 

vt -1.9685 222.278
vn -0.0995037 0.995037 1.14035e-17
vt 1.9685 222.278
vt 1.9685 261.844
v 6.55492 1.29096 -0.05
vt -1.9685 261.844
f 109/434/111 5/435/111 6/436/111 110/437/111 

v 6.30492 0.853222 -0.05
vt -1.9685 152.273
vn -0.868361 0.495933 1.03763e-15
vt 1.9685 152.273
vt 1.9685 172.119
vt -1.9685 172.119
f 111/438/112 7/439/112 6/440/112 110/441/112 

v 5.92401 0.415481 -0.05
vt -1.9685 165.442
vn -0.754373 0.656446 2.14803e-15
vt 1.9685 165.442
vt 1.9685 188.287
vt -1.9685 188.287
f 112/442/113 8/443/113 7/444/113 111/445/113 

v 6.30492 -0.0222593 -0.05
vt -1.9685 -163.608
vn -0.754373 -0.656446 -1.28349e-15
vt 1.9685 -163.608
vt 1.9685 -140.762
vt -1.9685 -140.762
f 113/446/114 9/447/114 8/448/114 112/449/114 

v 6.55492 -0.46 -0.05
vt -1.9685 -143.711
vn -0.868361 -0.495933 -1.56134e-16
vt 1.9685 -143.711
vt 1.9685 -123.864
vt -1.9685 -123.864
f 114/450/115 10/451/115 9/452/115 113/453/115 

vt 1.9685 -219.023
vn 0.0995037 0.995037 1.81885e-15
vt -1.9685 -219.023
vt -1.9685 -258.589
vt 1.9685 -258.589
f 12/454/116 1/455/116 10/456/116 114/457/116 

vt 199.013 -8.85827
vt 218.698 -14.1732
vt 258.068 -18.1102
vt 248.225 -0.876349
vt 233.229 16.3575
vt 248.225 33.5914
vt 258.068 50.8253
vt 218.698 46.8883
vt 199.013 41.5733
vt 191.926 16.3575
f 11/458/8 12/459/8 114/460/8 113/461/8 112/462/8 111/463/8 110/464/8 109/465/8 51/466/8 15/467/8 

usemtl DarkBrown
vt -187.167 18.852
vn 0.211152 -0.059342 -0.97565
vt -174.021 38.788
vt -194.093 44.1123
f 15/468/117 17/469/117 51/470/117

usemtl Pink
vt -58.8572 15.709
vn -2.1242e-17 -0.618339 -0.785911
vt -90.5512 -8.16747
vt -37.0079 -8.16747
f 35/471/118 20/472/118 32/473/118

