# Blender v2.75 (sub 0) OBJ File: ''
# www.blender.org
mtllib lowpolyfish2.mtl
o SketchUp.008_ID62
v -32.766308 -2.434380 -5.310469
v -31.250635 -2.486359 -5.644624
v -32.011826 -2.562535 -5.476809
v -30.534687 -2.211044 -5.802475
v -33.462673 -2.110628 -5.156939
v -29.912691 -1.755352 -5.939607
v -34.053501 -1.613342 -5.026678
v -29.427069 -1.150339 -6.046670
v -34.498512 -0.976412 -4.928568
v -29.110889 -0.437233 -6.116376
v -34.767368 -0.243243 -4.869294
v -28.985744 0.335368 -6.143968
v -34.841763 0.536201 -4.852893
v -29.060139 1.114811 -6.127567
v -34.716595 1.308801 -4.880486
v -29.329000 1.847980 -6.068291
v -34.400440 2.021907 -4.950188
v -29.774008 2.484911 -5.970181
v -33.914818 2.626921 -5.057254
v -30.364838 2.982196 -5.839922
v -33.292824 3.082612 -5.194384
v -31.061205 3.305947 -5.686389
v -32.576847 3.357928 -5.352234
v -31.815685 3.434103 -5.520050
vn -0.215300 0.000000 -0.976500
usemtl _0137_Black
s off
f 1//1 2//1 3//1
f 2//1 1//1 4//1
f 4//1 1//1 5//1
f 4//1 5//1 6//1
f 6//1 5//1 7//1
f 6//1 7//1 8//1
f 8//1 7//1 9//1
f 8//1 9//1 10//1
f 10//1 9//1 11//1
f 10//1 11//1 12//1
f 12//1 11//1 13//1
f 12//1 13//1 14//1
f 14//1 13//1 15//1
f 14//1 15//1 16//1
f 16//1 15//1 17//1
f 16//1 17//1 18//1
f 18//1 17//1 19//1
f 18//1 19//1 20//1
f 20//1 19//1 21//1
f 20//1 21//1 22//1
f 22//1 21//1 23//1
f 22//1 23//1 24//1
o SketchUp.007_ID54
v -31.250635 -2.486359 6.664624
v -32.766308 -2.434380 6.330470
v -32.011826 -2.562535 6.496809
v -30.534687 -2.211044 6.822475
v -33.462673 -2.110628 6.176937
v -29.912691 -1.755352 6.959605
v -34.053501 -1.613342 6.046678
v -29.427069 -1.150339 7.066671
v -34.498512 -0.976412 5.948568
v -29.110889 -0.437233 7.136376
v -34.767368 -0.243243 5.889292
v -28.985744 0.335368 7.163966
v -34.841763 0.536201 5.872891
v -29.060139 1.114811 7.147565
v -34.716595 1.308801 5.900483
v -29.329000 1.847980 7.088291
v -34.400440 2.021907 5.970189
v -29.774008 2.484911 6.990182
v -33.914818 2.626921 6.077252
v -30.364838 2.982196 6.859920
v -33.292824 3.082612 6.214384
v -31.061205 3.305947 6.706390
v -32.576847 3.357928 6.372235
v -31.815685 3.434103 6.540051
vn -0.215300 0.000000 0.976500
usemtl _0137_Black
s off
f 25//2 26//2 27//2
f 26//2 25//2 28//2
f 26//2 28//2 29//2
f 29//2 28//2 30//2
f 29//2 30//2 31//2
f 31//2 30//2 32//2
f 31//2 32//2 33//2
f 33//2 32//2 34//2
f 33//2 34//2 35//2
f 35//2 34//2 36//2
f 35//2 36//2 37//2
f 37//2 36//2 38//2
f 37//2 38//2 39//2
f 39//2 38//2 40//2
f 39//2 40//2 41//2
f 41//2 40//2 42//2
f 41//2 42//2 43//2
f 43//2 42//2 44//2
f 43//2 44//2 45//2
f 45//2 44//2 46//2
f 45//2 46//2 47//2
f 47//2 46//2 48//2
o SketchUp.006_ID46
v 1.244371 17.953047 3.009999
v -7.111918 17.953047 -1.990000
v -7.111918 17.953047 3.009999
v 1.244371 17.953047 -1.990000
v -7.111918 17.953047 -1.990000
v 15.863799 6.202715 -6.990001
v -25.148344 6.202715 -6.990001
v 1.244371 17.953047 -1.990000
v 1.244371 17.953047 3.009999
v -25.148344 6.202715 8.009998
v 15.863799 6.202715 8.009998
v -7.111918 17.953047 3.009999
vn 0.000000 1.000000 0.000000
vn 0.000000 0.391500 -0.920200
vn 0.000000 0.391500 0.920200
usemtl _0039_DarkOrange
s off
f 49//3 50//3 51//3
f 50//3 49//3 52//3
f 53//4 54//4 55//4
f 54//4 53//4 56//4
f 57//5 58//5 59//5
f 58//5 57//5 60//5
o SketchUp.005_ID40
v -25.148344 6.202715 -6.990001
v 15.863799 -6.582715 -6.990001
v -25.148344 -6.582715 -6.990001
v 15.863799 6.202715 -6.990001
v 34.197140 -1.856666 -1.990000
v 15.863799 6.202715 -6.990001
v 15.863799 -6.582715 -6.990001
v 34.197140 1.476667 -1.990000
v 34.197140 1.476667 -1.990000
v 34.197140 -1.856666 -1.990000
v 15.863799 6.202715 -6.990001
v 15.863799 -6.582715 -6.990001
vn -0.263100 0.000000 0.964800
vn 0.000000 0.000000 -1.000000
vn 0.263100 0.000000 -0.964800
usemtl material
s off
f 65//6 66//6 67//6
f 66//6 65//6 68//6
usemtl _0071_MediumSpringGreen
f 61//7 62//7 63//7
f 62//7 61//7 64//7
f 69//8 70//8 71//8
f 72//8 71//8 70//8
o SketchUp.004_ID34
v -7.111918 -18.333046 3.009999
v -25.148344 -6.582715 8.009998
v -47.827160 -2.046953 3.009999
v -25.148344 -6.582715 8.009998
v 1.244371 -18.333046 3.009999
v -7.111918 -18.333046 3.009999
v 15.863799 -6.582715 8.009998
v 15.863799 -6.582715 8.009998
v -25.148344 -6.582715 8.009998
v 1.244371 -18.333046 3.009999
v -7.111918 -18.333046 3.009999
v -7.111918 -18.333046 3.009999
v -47.827160 -2.046953 -1.990000
v -47.827160 -2.046953 3.009999
v -7.111918 -18.333046 -1.990000
v -7.111918 -18.333046 -1.990000
v -7.111918 -18.333046 3.009999
v -47.827160 -2.046953 -1.990000
v -47.827160 -2.046953 3.009999
v 1.244371 -18.333046 3.009999
v -7.111918 -18.333046 -1.990000
v -7.111918 -18.333046 3.009999
v 1.244371 -18.333046 -1.990000
v 1.244371 -18.333046 -1.990000
v 1.244371 -18.333046 3.009999
v -7.111918 -18.333046 -1.990000
v -7.111918 -18.333046 3.009999
v 34.197140 -1.856666 3.009999
v 1.244371 -18.333046 3.009999
v 15.863799 -6.582715 8.009998
v 15.863799 -6.582715 8.009998
v 1.244371 -18.333046 3.009999
v 34.197140 -1.856666 3.009999
v -7.111918 -18.333046 -1.990000
v -47.827160 -2.046953 -1.990000
v -25.148344 -6.582715 -6.990001
v 34.197140 -1.856666 3.009999
v 1.244371 -18.333046 -1.990000
v 1.244371 -18.333046 3.009999
v 34.197140 -1.856666 -1.990000
v 34.197140 -1.856666 -1.990000
v 34.197140 -1.856666 3.009999
v 1.244371 -18.333046 -1.990000
v 1.244371 -18.333046 3.009999
v 15.863799 -6.582715 -6.990001
v -7.111918 -18.333046 -1.990000
v 1.244371 -18.333046 -1.990000
v -25.148344 -6.582715 -6.990001
v -25.148344 -6.582715 -6.990001
v 15.863799 -6.582715 -6.990001
v -7.111918 -18.333046 -1.990000
v 1.244371 -18.333046 -1.990000
v 34.197140 -1.856666 -1.990000
v 15.863799 -6.582715 -6.990001
v 1.244371 -18.333046 -1.990000
v 1.244371 -18.333046 -1.990000
v 15.863799 -6.582715 -6.990001
v 34.197140 -1.856666 -1.990000
vn 0.000000 0.391500 -0.920200
vn 0.371400 0.928500 0.000000
vn 0.000000 1.000000 0.000000
vn -0.350200 0.700400 -0.622000
vn -0.447200 0.894400 0.000000
vn 0.000000 0.391500 0.920200
vn -0.350200 0.700400 0.622000
vn -0.284100 -0.710100 0.644200
vn 0.000000 -0.391500 0.920200
vn -0.371400 -0.928500 0.000000
vn 0.000000 -1.000000 0.000000
vn 0.350200 -0.700400 0.622000
vn -0.284100 -0.710100 -0.644200
vn 0.447200 -0.894400 0.000000
vn 0.000000 -0.391500 -0.920200
vn 0.350200 -0.700400 -0.622000
usemtl material
s off
f 76//9 77//9 78//9
f 77//9 76//9 79//9
f 84//10 85//10 86//10
f 85//10 84//10 87//10
f 92//11 93//11 94//11
f 93//11 92//11 95//11
f 100//12 101//12 102//12
f 109//13 110//13 111//13
f 110//13 109//13 112//13
f 117//14 118//14 119//14
f 118//14 117//14 120//14
f 125//15 126//15 127//15
usemtl _0109_DarkSlateBlue
f 73//16 74//16 75//16
f 80//17 81//17 82//17
f 83//17 82//17 81//17
f 88//18 89//18 90//18
f 91//18 90//18 89//18
f 96//19 97//19 98//19
f 99//19 98//19 97//19
f 103//20 104//20 105//20
f 106//21 107//21 108//21
f 113//22 114//22 115//22
f 116//22 115//22 114//22
f 121//23 122//23 123//23
f 124//23 123//23 122//23
f 128//24 129//24 130//24
o SketchUp.003_ID28
v 34.197140 -1.856666 3.009999
v 52.530479 -15.190000 3.009999
v 52.530479 -20.190001 3.009999
v 46.697136 -0.190000 3.009999
v 34.197140 1.476667 3.009999
v 52.530479 14.809999 3.009999
v 52.530479 19.809999 3.009999
v 52.530479 19.809999 3.009999
v 34.197140 1.476667 3.009999
v 52.530479 14.809999 3.009999
v 46.697136 -0.190000 3.009999
v 34.197140 -1.856666 3.009999
v 52.530479 -15.190000 3.009999
v 52.530479 -20.190001 3.009999
v 52.530479 -20.190001 -1.990000
v 34.197140 -1.856666 3.009999
v 52.530479 -20.190001 3.009999
v 34.197140 -1.856666 -1.990000
v 34.197140 -1.856666 -1.990000
v 52.530479 -20.190001 -1.990000
v 34.197140 -1.856666 3.009999
v 52.530479 -20.190001 3.009999
v 34.197140 1.476667 -1.990000
v 52.530479 19.809999 3.009999
v 34.197140 1.476667 3.009999
v 52.530479 19.809999 -1.990000
v 52.530479 19.809999 -1.990000
v 34.197140 1.476667 -1.990000
v 52.530479 19.809999 3.009999
v 34.197140 1.476667 3.009999
v 52.530479 19.809999 -1.990000
v 52.530479 14.809999 3.009999
v 52.530479 19.809999 3.009999
v 52.530479 14.809999 -1.990000
v 52.530479 14.809999 -1.990000
v 52.530479 19.809999 -1.990000
v 52.530479 14.809999 3.009999
v 52.530479 19.809999 3.009999
v 52.530479 14.809999 -1.990000
v 46.697136 -0.190000 3.009999
v 52.530479 14.809999 3.009999
v 46.697136 -0.190000 -1.990000
v 46.697136 -0.190000 -1.990000
v 52.530479 14.809999 -1.990000
v 46.697136 -0.190000 3.009999
v 52.530479 14.809999 3.009999
v 46.697136 -0.190000 -1.990000
v 52.530479 -15.190000 3.009999
v 46.697136 -0.190000 3.009999
v 52.530479 -15.190000 -1.990000
v 52.530479 -15.190000 -1.990000
v 46.697136 -0.190000 -1.990000
v 52.530479 -15.190000 3.009999
v 46.697136 -0.190000 3.009999
v 52.530479 -15.190000 -1.990000
v 52.530479 -20.190001 3.009999
v 52.530479 -15.190000 3.009999
v 52.530479 -20.190001 -1.990000
v 52.530479 -20.190001 -1.990000
v 52.530479 -15.190000 -1.990000
v 52.530479 -20.190001 3.009999
v 52.530479 -15.190000 3.009999
v 52.530479 -15.190000 -1.990000
v 34.197140 -1.856666 -1.990000
v 52.530479 -20.190001 -1.990000
v 46.697136 -0.190000 -1.990000
v 34.197140 1.476667 -1.990000
v 52.530479 14.809999 -1.990000
v 52.530479 19.809999 -1.990000
v 52.530479 19.809999 -1.990000
v 52.530479 14.809999 -1.990000
v 34.197140 1.476667 -1.990000
v 46.697136 -0.190000 -1.990000
v 34.197140 -1.856666 -1.990000
v 52.530479 -15.190000 -1.990000
v 52.530479 -20.190001 -1.990000
vn -0.000000 0.000000 1.000000
vn -0.707100 -0.707100 0.000000
vn -0.707100 0.707100 0.000000
vn 1.000000 0.000000 0.000000
vn 0.932000 -0.362400 0.000000
vn 0.932000 0.362400 0.000000
vn -0.000000 0.000000 -1.000000
vn 0.707100 0.707100 0.000000
vn 0.707100 -0.707100 0.000000
vn -1.000000 0.000000 0.000000
vn -0.932000 0.362400 0.000000
vn -0.932000 -0.362400 0.000000
usemtl _0127_Magenta
s off
f 138//25 139//25 140//25
f 140//25 139//25 141//25
f 139//25 142//25 141//25
f 141//25 142//25 143//25
f 144//25 143//25 142//25
f 149//26 150//26 151//26
f 152//26 151//26 150//26
f 157//27 158//27 159//27
f 160//27 159//27 158//27
f 165//28 166//28 167//28
f 168//28 167//28 166//28
f 173//29 174//29 175//29
f 176//29 175//29 174//29
f 181//30 182//30 183//30
f 184//30 183//30 182//30
f 189//28 190//28 191//28
f 192//28 191//28 190//28
f 200//31 201//31 202//31
f 201//31 203//31 202//31
f 202//31 203//31 204//31
f 203//31 205//31 204//31
f 206//31 204//31 205//31
usemtl material
f 131//31 132//31 133//31
f 132//31 131//31 134//31
f 134//31 131//31 135//31
f 134//31 135//31 136//31
f 136//31 135//31 137//31
f 145//32 146//32 147//32
f 146//32 145//32 148//32
f 153//33 154//33 155//33
f 154//33 153//33 156//33
f 161//34 162//34 163//34
f 162//34 161//34 164//34
f 169//35 170//35 171//35
f 170//35 169//35 172//35
f 177//36 178//36 179//36
f 178//36 177//36 180//36
f 185//34 186//34 187//34
f 186//34 185//34 188//34
f 193//25 194//25 195//25
f 194//25 193//25 196//25
f 194//25 196//25 197//25
f 197//25 196//25 198//25
f 197//25 198//25 199//25
o SketchUp.002_ID20
v 34.197140 1.476667 3.009999
v 1.244371 17.953047 3.009999
v 15.863799 6.202715 8.009998
v 34.197140 1.476667 -1.990000
v 1.244371 17.953047 3.009999
v 1.244371 17.953047 -1.990000
v 34.197140 1.476667 3.009999
v 34.197140 1.476667 3.009999
v 34.197140 1.476667 -1.990000
v 1.244371 17.953047 3.009999
v 1.244371 17.953047 -1.990000
v 34.197140 1.476667 -1.990000
v 15.863799 6.202715 -6.990001
v 1.244371 17.953047 -1.990000
vn -0.447200 -0.894400 0.000000
vn 0.350200 0.700400 0.622000
vn 0.447200 0.894400 0.000000
vn 0.350200 0.700400 -0.622000
usemtl material
s off
f 210//37 211//37 212//37
f 211//37 210//37 213//37
usemtl _0109_DarkSlateBlue
f 207//38 208//38 209//38
f 214//39 215//39 216//39
f 217//39 216//39 215//39
f 218//40 219//40 220//40
o SketchUp.001_ID12
v 15.863799 6.202715 8.009998
v 34.197140 -1.856666 3.009999
v 15.863799 -6.582715 8.009998
v 34.197140 1.476667 3.009999
v 34.197140 1.476667 3.009999
v 15.863799 6.202715 8.009998
v 34.197140 -1.856666 3.009999
v 15.863799 -6.582715 8.009998
v 15.863799 6.202715 8.009998
v -25.148344 -6.582715 8.009998
v 15.863799 -6.582715 8.009998
v -25.148344 6.202715 8.009998
vn -0.263100 0.000000 -0.964800
vn 0.263100 0.000000 0.964800
vn 0.000000 0.000000 1.000000
usemtl material
s off
f 221//41 222//41 223//41
f 222//41 221//41 224//41
usemtl _0071_MediumSpringGreen
f 225//42 226//42 227//42
f 228//42 227//42 226//42
f 229//43 230//43 231//43
f 230//43 229//43 232//43
o SketchUp_ID2
v -25.148344 -6.582715 8.009998
v -31.250635 -2.486359 6.664624
v -32.011826 -2.562535 6.496809
v -30.534687 -2.211044 6.822475
v -29.912691 -1.755352 6.959605
v -29.427069 -1.150339 7.066671
v -25.148344 6.202715 8.009998
v -29.110889 -0.437233 7.136376
v -28.985744 0.335368 7.163966
v -29.060139 1.114811 7.147565
v -29.329000 1.847980 7.088291
v -29.774008 2.484911 6.990182
v -30.364838 2.982196 6.859920
v -31.061205 3.305947 6.706390
v -31.815685 3.434103 6.540051
v -47.827160 -2.046953 3.009999
v -32.766308 -2.434380 6.330470
v -33.462673 -2.110628 6.176937
v -34.053501 -1.613342 6.046678
v -47.827160 1.666953 3.009999
v -34.498512 -0.976412 5.948568
v -34.767368 -0.243243 5.889292
v -34.841763 0.536201 5.872891
v -34.716595 1.308801 5.900483
v -34.400440 2.021907 5.970189
v -33.914818 2.626921 6.077252
v -33.292824 3.082612 6.214384
v -32.576847 3.357928 6.372235
v -7.111918 17.953047 3.009999
v -25.148344 6.202715 8.009998
v -47.827160 1.666953 3.009999
v -47.827160 1.666953 3.009999
v -25.148344 6.202715 8.009998
v -7.111918 17.953047 3.009999
v -47.827160 1.666953 -1.990000
v -47.827160 -2.046953 3.009999
v -47.827160 1.666953 3.009999
v -47.827160 -2.046953 -1.990000
v -47.827160 1.666953 3.009999
v -7.111918 17.953047 -1.990000
v -47.827160 1.666953 -1.990000
v -7.111918 17.953047 3.009999
v -47.827160 -2.046953 -1.990000
v -32.011826 -2.562535 -5.476809
v -25.148344 -6.582715 -6.990001
v -32.766308 -2.434380 -5.310469
v -33.462673 -2.110628 -5.156939
v -34.053501 -1.613342 -5.026678
v -47.827160 1.666953 -1.990000
v -34.498512 -0.976412 -4.928568
v -34.767368 -0.243243 -4.869294
v -34.841763 0.536201 -4.852893
v -34.716595 1.308801 -4.880486
v -34.400440 2.021907 -4.950188
v -33.914818 2.626921 -5.057254
v -33.292824 3.082612 -5.194384
v -32.576847 3.357928 -5.352234
v -25.148344 6.202715 -6.990001
v -31.815685 3.434103 -5.520050
v -29.427069 -1.150339 -6.046670
v -29.912691 -1.755352 -5.939607
v -30.534687 -2.211044 -5.802475
v -31.250635 -2.486359 -5.644624
v -29.110889 -0.437233 -6.116376
v -28.985744 0.335368 -6.143968
v -29.060139 1.114811 -6.127567
v -29.329000 1.847980 -6.068291
v -29.774008 2.484911 -5.970181
v -30.364838 2.982196 -5.839922
v -31.061205 3.305947 -5.686389
v -7.111918 17.953047 -1.990000
v -47.827160 1.666953 -1.990000
v -25.148344 6.202715 -6.990001
v -25.148344 6.202715 -6.990001
v -47.827160 1.666953 -1.990000
v -7.111918 17.953047 -1.990000
vn -0.215300 0.000000 0.976500
vn -0.284100 0.710100 0.644200
vn -1.000000 0.000000 0.000000
vn -0.371400 0.928500 0.000000
vn -0.215300 -0.000000 -0.976500
vn -0.284100 0.710100 -0.644200
vn 0.284100 -0.710100 -0.644200
vn 0.284100 -0.710100 0.644200
usemtl _0127_Magenta
s off
f 233//44 234//44 235//44
f 234//44 233//44 236//44
f 236//44 233//44 237//44
f 237//44 233//44 238//44
f 238//44 233//44 239//44
f 238//44 239//44 240//44
f 240//44 239//44 241//44
f 241//44 239//44 242//44
f 242//44 239//44 243//44
f 243//44 239//44 244//44
f 244//44 239//44 245//44
f 245//44 239//44 246//44
f 246//44 239//44 247//44
f 235//44 248//44 233//44
f 248//44 235//44 249//44
f 248//44 249//44 250//44
f 248//44 250//44 251//44
f 248//44 251//44 252//44
f 252//44 251//44 253//44
f 252//44 253//44 254//44
f 252//44 254//44 255//44
f 252//44 255//44 256//44
f 252//44 256//44 257//44
f 252//44 257//44 258//44
f 252//44 258//44 259//44
f 252//44 259//44 260//44
f 252//44 260//44 239//44
f 239//44 260//44 247//44
f 264//45 265//45 266//45
f 267//46 268//46 269//46
f 268//46 267//46 270//46
f 271//47 272//47 273//47
f 272//47 271//47 274//47
f 275//48 276//48 277//48
f 276//48 275//48 278//48
f 278//48 275//48 279//48
f 279//48 275//48 280//48
f 280//48 275//48 281//48
f 280//48 281//48 282//48
f 282//48 281//48 283//48
f 283//48 281//48 284//48
f 284//48 281//48 285//48
f 285//48 281//48 286//48
f 286//48 281//48 287//48
f 287//48 281//48 288//48
f 288//48 281//48 289//48
f 289//48 281//48 290//48
f 289//48 290//48 291//48
f 277//48 292//48 290//48
f 292//48 277//48 293//48
f 293//48 277//48 294//48
f 294//48 277//48 295//48
f 295//48 277//48 276//48
f 290//48 292//48 296//48
f 290//48 296//48 297//48
f 290//48 297//48 298//48
f 290//48 298//48 299//48
f 290//48 299//48 300//48
f 290//48 300//48 301//48
f 290//48 301//48 302//48
f 290//48 302//48 291//48
f 306//49 307//49 308//49
usemtl material
f 261//50 262//50 263//50
f 303//51 304//51 305//51
